<?xml version="1.0" encoding="utf-8"?>
<!-- Generator: Adobe Illustrator 16.0.0, SVG Export Plug-In . SVG Version: 6.00 Build 0)  -->
<!DOCTYPE svg PUBLIC "-//W3C//DTD SVG 1.1//EN" "http://www.w3.org/Graphics/SVG/1.1/DTD/svg11.dtd">
<svg version="1.1" id="Слой_1" xmlns="http://www.w3.org/2000/svg" xmlns:xlink="http://www.w3.org/1999/xlink" x="0px" y="0px"
	 width="396.617px" height="82.4px" viewBox="0 0 396.617 82.4" enable-background="new 0 0 396.617 82.4" xml:space="preserve">
<g>
	<path fill="#52616F" d="M37.243,6.231l11.566,6.684c0.047-0.407,0.123-0.808,0.123-1.224C48.932,5.235,43.707,0,37.243,0
		c-6.456,0-11.686,5.236-11.686,11.692c0,0.416,0.08,0.812,0.123,1.217L37.243,6.231z"/>
	<path fill="#52616F" d="M67.521,23.719v13.4c4.097-1.814,6.962-5.901,6.962-10.672c0-6.457-5.228-11.692-11.689-11.692
		c-2.575,0-4.936,0.86-6.864,2.27L67.521,23.719z"/>
	<path fill="#52616F" d="M6.953,37.114V23.719l11.597-6.694c-1.93-1.41-4.289-2.27-6.864-2.27C5.228,14.755,0,19.99,0,26.447
		C0,31.214,2.857,35.3,6.953,37.114"/>
	<path fill="#52616F" d="M67.527,45.28v13.406L55.93,65.381c1.933,1.408,4.294,2.263,6.864,2.263
		c6.461,0,11.689-5.229,11.689-11.684C74.483,51.186,71.618,47.102,67.527,45.28"/>
	<path fill="#52616F" d="M6.95,58.686v-13.4C2.858,47.108,0,51.194,0,55.96c0,6.454,5.227,11.684,11.686,11.684
		c2.575,0,4.931-0.854,6.862-2.263L6.95,58.686z"/>
	<path fill="#52616F" d="M37.238,76.173l-11.561-6.675c-0.043,0.405-0.123,0.798-0.123,1.218c0,6.453,5.23,11.685,11.689,11.685
		c6.456,0,11.685-5.231,11.685-11.685c0-0.42-0.08-0.82-0.123-1.227L37.238,76.173z"/>
	<path fill="#BFD600" d="M62.794,38.135c1.687,0,3.28-0.373,4.727-1.015v-13.4l-14.805,8.547
		C54.733,35.761,58.466,38.135,62.794,38.135"/>
	<path fill="#BFD600" d="M51.105,55.961c0,3.882,1.913,7.292,4.824,9.421l11.597-6.696V45.28c-1.452-0.642-3.045-1.015-4.733-1.015
		C56.334,44.265,51.105,49.5,51.105,55.961"/>
	<path fill="#BFD600" d="M48.805,69.49c-0.616-5.874-5.52-10.47-11.562-10.47h-0.005v17.153L48.805,69.49z"/>
	<path fill="#C0C5CA" d="M6.953,37.114c1.448,0.647,3.046,1.02,4.733,1.02c4.328,0,8.058-2.374,10.081-5.868L6.953,23.719V37.114z"
		/>
	<path fill="#C0C5CA" d="M37.238,59.02c-6.042,0.005-10.95,4.603-11.561,10.479l11.561,6.674V59.02z"/>
	<path fill="#C0C5CA" d="M23.375,55.961c0-6.461-5.231-11.696-11.689-11.696c-1.69,0-3.286,0.373-4.736,1.02v13.401l11.598,6.696
		C21.465,63.258,23.375,59.843,23.375,55.961"/>
	<path fill="#00B8E4" d="M55.93,17.025c-2.912,2.13-4.824,5.538-4.824,9.422c0,2.129,0.615,4.103,1.61,5.82l14.805-8.548
		L55.93,17.025z"/>
	<path fill="#00B8E4" d="M21.766,32.267c0.998-1.717,1.609-3.686,1.609-5.82c0-3.884-1.91-7.298-4.825-9.422L6.952,23.72
		L21.766,32.267z"/>
	<path fill="#00B8E4" d="M25.68,12.909c0.612,5.877,5.521,10.473,11.563,10.473s10.951-4.596,11.566-10.467L37.243,6.232
		L25.68,12.909z"/>
	<path fill="#FFFFFF" d="M106.545,21.117c0,1.778-0.04,3.595-0.115,5.452c-0.076,1.852-0.189,3.632-0.342,5.334
		c-0.188,1.704-0.416,3.219-0.68,4.62c-0.303,1.363-0.681,2.422-1.137,3.18c-0.415,0.719-0.946,1.248-1.514,1.59
		c-0.567,0.339-1.211,0.491-1.853,0.491c-0.532,0-1.098-0.076-1.704-0.227l-0.417,1.703c0.34,0.112,0.718,0.227,1.098,0.266
		c0.34,0.038,0.757,0.075,1.175,0.075c0.945,0,1.816-0.229,2.571-0.644c0.759-0.417,1.438-1.061,2.007-1.853
		c0.644-0.873,1.137-2.083,1.515-3.56c0.378-1.478,0.682-3.18,0.87-5.11c0.191-1.894,0.342-3.937,0.417-6.133
		c0.037-2.234,0.076-4.504,0.076-6.814h13.21V43.11h1.97V17.748h-17.147V21.117z M130.071,40.156V17.748h-1.969V43.11h2.044
		l17.414-22.411V43.11h1.967V17.748h-1.891L130.071,40.156z M154.452,48.862l0.34-5.752h23.771l0.342,5.752h1.4l0.265-5.375v-2.119
		h-3.708v-23.62h-16.77v2.536c0,1.665-0.04,3.293-0.151,4.883c-0.115,1.628-0.228,3.143-0.455,4.579
		c-0.153,1.44-0.38,2.764-0.682,3.975c-0.226,1.249-0.528,2.31-0.87,3.217c-0.227,0.644-0.528,1.25-0.871,1.781
		c-0.341,0.566-0.719,1.022-1.136,1.437c-0.378,0.379-0.755,0.681-1.135,0.909c-0.415,0.189-0.757,0.303-1.099,0.303h-0.906v2.158
		l0.264,5.336H154.452z M159.373,38.491c0.604-1.325,1.097-2.952,1.475-4.921c0.418-1.892,0.683-4.088,0.909-6.474
		c0.152-2.384,0.264-4.92,0.264-7.608h12.871v21.88h-17.678C158.047,40.799,158.767,39.854,159.373,38.491 M203.209,41.368h-16.543
		V30.807h13.818v-1.703h-13.818v-9.653h15.824v-1.703h-17.792V43.11h18.511V41.368z M226.523,29.937
		c0.492-1.1,0.756-2.31,0.756-3.635c0-1.249-0.226-2.423-0.719-3.482c-0.491-1.022-1.135-1.931-1.968-2.687
		c-0.833-0.757-1.817-1.326-2.991-1.781c-1.134-0.377-2.385-0.604-3.708-0.604h-10.375V43.11h1.971v-8.102h8.024
		c1.363,0,2.65-0.188,3.823-0.605c1.175-0.416,2.232-0.984,3.104-1.742C225.311,31.903,226.029,30.996,226.523,29.937
		 M223.041,31.451c-0.72,0.567-1.553,1.021-2.498,1.362c-0.948,0.304-2.006,0.454-3.18,0.454h-7.874V19.488h8.138
		c2.309,0,4.166,0.608,5.564,1.817c1.401,1.21,2.084,2.878,2.084,5.035c0,1.1-0.191,2.044-0.569,2.915
		C224.289,30.125,223.76,30.845,223.041,31.451 M250.639,40.686V18.28h-1.967v25.36h2.042l17.413-22.41v22.41h1.968V18.28h-1.893
		L250.639,40.686z M293.758,29.748h-16.995V18.28h-1.97v25.36h1.97V31.489h16.995V43.64h1.969V18.28h-1.969V29.748z M319.685,32.626
		c-0.416-0.569-0.87-1.021-1.4-1.399c-0.567-0.383-1.137-0.645-1.78-0.835v-0.378c0.986-0.492,1.705-1.248,2.196-2.198
		c0.494-0.945,0.72-1.967,0.72-3.065c0-0.87-0.188-1.665-0.531-2.46c-0.339-0.795-0.87-1.474-1.589-2.043
		c-0.681-0.608-1.55-1.097-2.573-1.439c-1.06-0.342-2.273-0.529-3.671-0.529h-10.108v25.36h11.168c1.475,0,2.8-0.188,3.898-0.529
		c1.098-0.378,2.045-0.87,2.765-1.514c0.718-0.644,1.284-1.364,1.625-2.194c0.379-0.834,0.569-1.741,0.569-2.691
		c0-0.795-0.113-1.511-0.343-2.23C320.403,33.798,320.102,33.194,319.685,32.626 M302.914,20.021h7.989
		c4.353,0,6.512,1.55,6.512,4.655c0,0.681-0.115,1.324-0.268,1.932c-0.227,0.568-0.528,1.097-0.907,1.514
		c-0.456,0.454-0.984,0.795-1.628,1.058c-0.645,0.227-1.475,0.342-2.423,0.342h-9.275V20.021z M317.224,40.461
		c-1.136,0.944-2.838,1.438-5.108,1.438h-9.201V31.227h9.505c2.156,0,3.821,0.489,4.881,1.474c1.136,0.986,1.664,2.271,1.664,3.9
		C318.964,38.19,318.398,39.477,317.224,40.461 M327.301,31.337h13.816v-1.701h-13.816v-9.654h15.822V18.28h-17.791v25.36h18.511
		v-1.741h-16.542V31.337z M365.111,41.557c-1.514,0.567-3.14,0.871-4.921,0.871c-1.626,0-3.14-0.264-4.542-0.791
		c-1.4-0.533-2.573-1.288-3.634-2.311c-0.984-0.986-1.816-2.198-2.346-3.597c-0.608-1.403-0.871-2.993-0.871-4.769
		c0-1.706,0.263-3.296,0.871-4.696c0.529-1.398,1.323-2.611,2.346-3.596c1.021-1.021,2.233-1.777,3.634-2.345
		c1.402-0.569,2.952-0.836,4.657-0.836c3.292,0,6.094,0.987,8.402,2.919l1.061-1.404c-0.567-0.492-1.251-0.906-1.931-1.323
		c-0.757-0.417-1.514-0.759-2.271-1.022c-0.833-0.302-1.629-0.532-2.46-0.683c-0.833-0.152-1.629-0.227-2.423-0.227
		c-2.119,0-4.051,0.342-5.754,1.022c-1.703,0.683-3.18,1.629-4.391,2.801c-1.212,1.173-2.158,2.577-2.764,4.203
		c-0.682,1.629-0.984,3.37-0.984,5.262c0,2.043,0.303,3.899,0.984,5.49c0.605,1.664,1.515,3.028,2.689,4.16
		c1.172,1.101,2.535,1.972,4.201,2.576c1.59,0.604,3.406,0.91,5.336,0.91c4.128,0,7.57-1.253,10.335-3.749l-1.175-1.328
		C367.914,40.157,366.55,40.992,365.111,41.557 M373.761,18.28v1.741h10.107V43.64h1.968V20.021h10.107V18.28H373.761z
		 M-8046.254-138.09h16383 M241.913,34.91h-9.167v-2h9.167V34.91z"/>
	<path fill="#FFFFFF" d="M101.656,66.155c1.04-1.633,1.44-3.682,1.44-6.467v-3.841h6.227v10.308h1.36v3.842h-1.2v-2.754h-7.635
		v2.754h-1.201v-3.842H101.656z M108.106,66.155v-9.22h-3.857v3.506c0,2.112-0.321,4.113-1.233,5.714H108.106z"/>
	<polygon fill="#FFFFFF" points="116.503,67.244 116.503,55.846 123.579,55.846 123.579,56.935 117.72,56.935 117.72,60.953 
		122.714,60.953 122.714,62.042 117.72,62.042 117.72,66.155 123.579,66.155 123.579,67.244 	"/>
	<path fill="#FFFFFF" d="M134.057,67.243h-4.434V55.847h4.29c2.017,0,3.362,1.2,3.362,2.993c0,0.815-0.288,1.504-0.833,2.016
		c-0.24,0.241-0.416,0.337-0.848,0.529c0.528,0.224,0.736,0.352,1.008,0.624c0.56,0.544,0.849,1.248,0.849,2.113
		C137.451,66.059,136.17,67.243,134.057,67.243 M133.817,56.935h-2.977v3.954h2.977c1.409,0,2.241-0.737,2.241-1.985
		C136.058,57.671,135.226,56.935,133.817,56.935 M133.945,61.977h-3.105v4.178h3.105c1.409,0,2.289-0.816,2.289-2.097
		C136.234,62.777,135.354,61.977,133.945,61.977"/>
	<polygon fill="#FFFFFF" points="143.832,67.244 143.832,55.846 150.906,55.846 150.906,56.935 145.048,56.935 145.048,60.953 
		150.042,60.953 150.042,62.042 145.048,62.042 145.048,66.155 150.906,66.155 150.906,67.244 	"/>
	<path fill="#FFFFFF" d="M163.274,67.244V56.935h-3.873v3.906c0,4.801-1.153,6.402-3.33,6.402h-0.576v-1.089h0.304
		c1.409,0,2.417-0.944,2.417-5.683v-4.626h6.274v11.397H163.274z"/>
	<path fill="#FFFFFF" d="M178.842,61.544c0,2.273-0.031,3.57-1.072,4.61c-0.768,0.768-1.777,1.185-2.913,1.185
		c-1.137,0-2.145-0.417-2.913-1.185c-1.041-1.04-1.073-2.337-1.073-4.61v-0.88c0-1.361,0.096-2.753,1.073-3.729
		c0.768-0.77,1.792-1.186,2.913-1.186c1.12,0,2.145,0.416,2.913,1.186c0.993,0.991,1.072,2.433,1.072,3.824V61.544z M177.626,60.937
		c0-1.345-0.048-2.529-0.8-3.281c-0.529-0.529-1.233-0.817-1.969-0.817s-1.441,0.288-1.969,0.817c-0.8,0.8-0.8,1.984-0.8,3.553
		v1.137c0,1.232,0.064,2.354,0.8,3.09c0.528,0.527,1.217,0.815,1.969,0.815s1.44-0.288,1.969-0.815c0.784-0.785,0.8-2.018,0.8-3.33
		V60.937z"/>
	<polygon fill="#FFFFFF" points="191.834,67.244 191.834,56.935 186.44,56.935 186.44,67.244 185.223,67.244 185.223,55.846 
		193.051,55.846 193.051,67.244 	"/>
	<polygon fill="#FFFFFF" points="199.879,67.244 199.879,55.846 206.954,55.846 206.954,56.935 201.096,56.935 201.096,60.953 
		206.09,60.953 206.09,62.042 201.096,62.042 201.096,66.155 206.954,66.155 206.954,67.244 	"/>
	<path fill="#FFFFFF" d="M217.241,62.553h-3.025v4.689h-1.217V55.847h4.242c2.112,0,3.521,1.344,3.521,3.345
		C220.762,61.208,219.354,62.553,217.241,62.553 M217.129,56.935h-2.913v4.53h2.913c1.52,0,2.417-0.849,2.417-2.273
		C219.546,57.768,218.648,56.935,217.129,56.935"/>
	<path fill="#FFFFFF" d="M230.152,67.339c-1.121,0-2.145-0.417-2.913-1.185c-1.073-1.072-1.073-2.193-1.073-4.609
		c0-2.417,0-3.538,1.073-4.61c0.769-0.769,1.792-1.185,2.913-1.185c2.049,0,3.569,1.249,3.953,3.394h-1.248
		c-0.305-1.393-1.281-2.306-2.705-2.306c-0.752,0-1.473,0.289-1.969,0.801c-0.72,0.736-0.801,1.521-0.801,3.906
		c0,2.384,0.081,3.169,0.801,3.905c0.496,0.513,1.217,0.801,1.969,0.801c1.424,0,2.434-0.913,2.737-2.306h1.216
		C233.738,66.09,232.186,67.339,230.152,67.339"/>
	<polygon fill="#FFFFFF" points="240.375,67.244 240.375,55.846 241.592,55.846 241.592,61.273 246.473,55.846 248.01,55.846 
		243.016,61.257 248.441,67.244 246.825,67.244 241.592,61.304 241.592,67.244 	"/>
	<path fill="#FFFFFF" d="M260.233,67.244l-0.913-2.577h-4.978l-0.912,2.577h-1.297l4.194-11.397h1.023l4.178,11.397H260.233z
		 M256.855,57.591l-2.145,6.019h4.258L256.855,57.591z"/>
	<path fill="#FFFFFF" d="M267.559,67.243h-1.424l2.625-4.865c-1.507-0.368-2.449-1.553-2.449-3.186c0-2.033,1.408-3.345,3.521-3.345
		h4.241v11.396h-1.216v-4.689h-2.818L267.559,67.243z M272.857,56.919h-2.914c-1.521,0-2.416,0.849-2.416,2.272
		c0,1.425,0.895,2.273,2.416,2.273h2.914V56.919z"/>
	<polygon fill="#FFFFFF" points="288.455,67.244 288.455,55.846 289.671,55.846 289.671,61.273 294.553,55.846 296.09,55.846 
		291.096,61.257 296.521,67.244 294.904,67.244 289.671,61.304 289.671,67.244 	"/>
	<path fill="#FFFFFF" d="M308.889,61.544c0,2.273-0.031,3.57-1.073,4.61c-0.767,0.768-1.775,1.185-2.911,1.185
		c-1.137,0-2.146-0.417-2.914-1.185c-1.04-1.04-1.072-2.337-1.072-4.61v-0.88c0-1.361,0.096-2.753,1.072-3.729
		c0.769-0.77,1.793-1.186,2.914-1.186s2.145,0.416,2.911,1.186c0.994,0.991,1.073,2.433,1.073,3.824V61.544z M307.673,60.937
		c0-1.345-0.048-2.529-0.8-3.281c-0.529-0.529-1.232-0.817-1.969-0.817s-1.441,0.288-1.969,0.817
		c-0.801,0.8-0.801,1.984-0.801,3.553v1.137c0,1.232,0.064,2.354,0.801,3.09c0.527,0.527,1.216,0.815,1.969,0.815
		c0.752,0,1.439-0.288,1.969-0.815c0.783-0.785,0.8-2.018,0.8-3.33V60.937z"/>
	<polygon fill="#FFFFFF" points="323.818,67.244 323.818,58.583 320.696,65.451 319.656,65.451 316.486,58.583 316.486,67.244 
		315.27,67.244 315.27,55.846 316.486,55.846 320.2,63.929 323.818,55.846 325.034,55.846 325.034,67.244 	"/>
	<polygon fill="#FFFFFF" points="338.457,67.244 338.457,56.935 333.062,56.935 333.062,67.244 331.846,67.244 331.846,55.846 
		339.673,55.846 339.673,67.244 	"/>
	<path fill="#FFFFFF" d="M353.145,67.244l-0.912-2.577h-4.979l-0.912,2.577h-1.297l4.194-11.397h1.024l4.178,11.397H353.145z
		 M349.768,57.591l-2.145,6.019h4.257L349.768,57.591z"/>
	<polygon fill="#FFFFFF" points="366.425,67.244 366.425,62.042 361.015,62.042 361.015,67.244 359.798,67.244 359.798,55.846 
		361.015,55.846 361.015,60.953 366.425,60.953 366.425,55.846 367.642,55.846 367.642,67.244 	"/>
	<polygon fill="#FFFFFF" points="381.401,67.244 381.401,57.943 375.606,67.244 374.454,67.244 374.454,55.846 375.672,55.846 
		375.672,65.13 381.466,55.846 382.617,55.846 382.617,67.244 	"/>
	<path fill="#FFFFFF" d="M390.103,67.243h-1.425l2.625-4.865c-1.506-0.368-2.449-1.553-2.449-3.186c0-2.033,1.409-3.345,3.521-3.345
		h4.242v11.396H395.4v-4.689h-2.817L390.103,67.243z M395.4,56.919h-2.913c-1.521,0-2.417,0.849-2.417,2.272
		c0,1.425,0.896,2.273,2.417,2.273h2.913V56.919z"/>
</g>
</svg>
