<?xml version="1.0" encoding="utf-8"?>
<!-- Generator: Adobe Illustrator 16.0.0, SVG Export Plug-In . SVG Version: 6.00 Build 0)  -->
<!DOCTYPE svg PUBLIC "-//W3C//DTD SVG 1.1//EN" "http://www.w3.org/Graphics/SVG/1.1/DTD/svg11.dtd">
<svg version="1.1" id="Слой_1" xmlns="http://www.w3.org/2000/svg" xmlns:xlink="http://www.w3.org/1999/xlink" x="0px" y="0px"
	 width="280.502px" height="280.502px" viewBox="0 0 280.502 280.502" enable-background="new 0 0 280.502 280.502"
	 xml:space="preserve">
<rect width="280.502" height="280.502"/>
<rect x="12.797" y="13.312" fill-rule="evenodd" clip-rule="evenodd" fill="#F09300" width="239.853" height="233.484"/>
<polygon fill-rule="evenodd" clip-rule="evenodd" points="24.941,87.637 37.763,22.047 58.92,69.477 80.607,22.047 92.067,87.637 
	82.899,87.637 76.551,50.962 58.908,90.458 40.937,51.492 34.588,87.637 "/>
<polygon fill-rule="evenodd" clip-rule="evenodd" points="106.146,26.279 106.146,87.637 139.861,87.409 139.861,78.979 
	115.432,78.979 115.432,58.826 139.377,58.826 139.377,49.942 115.432,49.942 115.432,35.082 139.975,35.082 139.975,26.279 "/>
<polygon fill-rule="evenodd" clip-rule="evenodd" points="148.251,87.637 148.251,63.117 172.773,63.117 "/>
<polygon fill-rule="evenodd" clip-rule="evenodd" points="23.41,119.706 23.41,96.092 94.782,96.092 66.126,147.83 88.945,147.83 
	88.945,172.771 20.226,172.771 49.677,119.706 "/>
<polygon fill-rule="evenodd" clip-rule="evenodd" points="174.113,172.771 174.113,92.909 217.891,123.952 217.891,96.093 
	243.149,96.093 243.149,177.016 198.847,145.971 198.658,172.771 "/>
<g>
	<defs>
		<rect id="SVGID_1_" width="280.502" height="280.502"/>
	</defs>
	<clipPath id="SVGID_2_">
		<use xlink:href="#SVGID_1_"  overflow="visible"/>
	</clipPath>
	<path clip-path="url(#SVGID_2_)" d="M84.852,134.391c0-12.648,3.894-22.433,11.683-29.4c7.787-6.945,18.789-10.429,33.005-10.429
		c14.253,0,25.235,3.462,32.967,10.407c7.73,6.923,11.605,16.73,11.605,29.422c0,12.67-3.875,22.455-11.605,29.378
		c-7.732,6.945-18.714,10.407-32.967,10.407c-14.216,0-25.218-3.462-33.005-10.407C88.746,156.846,84.852,147.061,84.852,134.391
		 M114.794,134.369c0,5.103,1.323,9.186,3.97,12.226c2.627,3.04,6.2,4.549,10.661,4.549c4.48,0,8.034-1.509,10.662-4.549
		c2.646-3.04,3.969-7.123,3.969-12.226c0-5.148-1.323-9.253-3.969-12.248c-2.628-3.018-6.182-4.527-10.662-4.527
		c-4.461,0-8.034,1.509-10.661,4.527C116.118,125.116,114.794,129.221,114.794,134.369"/>
	<path clip-path="url(#SVGID_2_)" fill-rule="evenodd" clip-rule="evenodd" d="M21.037,225.33v-30.886h6.605v3.404l0.867-0.867
		c2.275-2.15,3.75-2.537,3.75-2.537s0.759-0.337,1.967-0.557c2.597-0.473,4.152-0.076,6.114,0.557l1.351,0.568
		c0.864,0.44,1.932,1.203,2.853,2.177c0.695,0.733,1.289,1.598,1.758,2.48c1.161,2.187,1.844,4.751,1.773,6.59v19.07h-7.158
		c0-6.058,0.021-12.114,0.021-18.171c-0.075-1.123-0.179-1.562-0.449-2.332c-0.328-0.923-0.694-1.585-1.273-2.312
		c-0.524-0.729-1.077-1.111-1.753-1.571c-0.758-0.355-1.356-0.549-2.222-0.622c-0.706-0.077-1.426-0.032-2.084,0.097
		c-0.813,0.169-1.44,0.51-2.093,0.995c-0.735,0.601-1.17,0.994-1.947,2.105c-0.602,1.271-0.93,2.607-0.967,4.009v17.803H21.037z"/>
	<path clip-path="url(#SVGID_2_)" fill-rule="evenodd" clip-rule="evenodd" d="M66.431,207.843v4.062
		c0.926,4.143,4.625,7.239,9.046,7.239c5.119,0,9.27-4.15,9.27-9.27s-4.151-9.271-9.27-9.271
		C71.056,200.604,67.357,203.701,66.431,207.843 M59.618,194.351h6.813v3.74c2.728-2.801,6.426-4.522,10.498-4.522
		c8.388,0,15.189,7.303,15.189,16.307s-6.801,16.306-15.189,16.306c-4.072,0-7.77-1.722-10.498-4.522v14.352h-6.813V194.351z"/>
	
		<circle clip-path="url(#SVGID_2_)" fill="none" stroke="#000000" stroke-width="0.216" stroke-miterlimit="22.926" cx="75.477" cy="209.875" r="9.27"/>
	
		<ellipse clip-path="url(#SVGID_2_)" fill="none" stroke="#000000" stroke-width="0.216" stroke-miterlimit="22.926" cx="115.795" cy="209.875" rx="8.823" ry="9.382"/>
	<path clip-path="url(#SVGID_2_)" fill-rule="evenodd" clip-rule="evenodd" d="M115.795,219.257c4.872,0,8.823-4.202,8.823-9.382
		s-3.951-9.382-8.823-9.382s-8.823,4.202-8.823,9.382S110.923,219.257,115.795,219.257 M115.795,226.263
		c8.942,0,16.194-7.339,16.194-16.388s-7.252-16.388-16.194-16.388s-16.194,7.339-16.194,16.388S106.854,226.263,115.795,226.263"/>
	<path clip-path="url(#SVGID_2_)" fill-rule="evenodd" clip-rule="evenodd" d="M147.76,206.524h16.484
		c-1.27-3.525-4.48-6.031-8.242-6.031S149.029,202.999,147.76,206.524 M156.002,226.263c6.711,0,12.471-4.134,14.926-10.021h-8.446
		c-1.611,1.854-3.918,3.016-6.479,3.016c-3.88,0-7.176-2.665-8.357-6.366h13.15v-0.004h11.127c0.179-0.976,0.274-1.982,0.274-3.012
		c0-9.049-7.252-16.388-16.194-16.388s-16.194,7.339-16.194,16.388S147.06,226.263,156.002,226.263"/>
	<polygon clip-path="url(#SVGID_2_)" fill-rule="evenodd" clip-rule="evenodd" points="217.252,194.306 242.466,194.306 
		242.466,200.064 233.178,200.064 233.178,225.199 226.764,225.199 226.764,200.064 217.252,200.064 	"/>
	<polygon clip-path="url(#SVGID_2_)" fill-rule="evenodd" clip-rule="evenodd" points="180.647,194.306 187.062,194.306 
		187.062,209.354 201.881,194.306 210.617,194.306 195.023,210.362 208.294,225.199 199.006,225.199 187.062,211.282 
		187.062,225.199 180.647,225.199 	"/>
</g>
</svg>
