<?xml version="1.0" encoding="utf-8"?>
<!-- Generator: Adobe Illustrator 16.0.0, SVG Export Plug-In . SVG Version: 6.00 Build 0)  -->
<!DOCTYPE svg PUBLIC "-//W3C//DTD SVG 1.1//EN" "http://www.w3.org/Graphics/SVG/1.1/DTD/svg11.dtd">
<svg version="1.1" id="Слой_1" xmlns="http://www.w3.org/2000/svg" xmlns:xlink="http://www.w3.org/1999/xlink" x="0px" y="0px"
	 width="295.334px" height="295.334px" viewBox="0 0 295.334 295.334" enable-background="new 0 0 295.334 295.334"
	 xml:space="preserve">
<polygon fill="#FFFFFF" points="173.61,98.492 176.852,108.466 187.339,108.466 178.854,114.631 182.096,124.605 173.61,118.441 
	165.126,124.605 168.367,114.631 159.883,108.466 170.37,108.466 "/>
<polygon fill="#FFFFFF" points="224.384,149.607 222.089,165.923 236.896,173.146 220.671,176.005 218.376,192.319 210.644,177.771 
	194.418,180.631 205.864,168.78 198.131,154.233 212.938,161.458 "/>
<g>
	<path fill="#FFFFFF" d="M141.191,56.95c-48.96,2.388-87.923,42.838-87.923,92.39c0,49.553,38.963,90.002,87.923,92.391
		c-17.024-26.69-26.893-58.387-26.893-92.391C114.298,115.336,124.167,83.639,141.191,56.95"/>
	<circle fill="none" stroke="#FFFFFF" stroke-width="6" stroke-miterlimit="10" cx="147.667" cy="147.667" r="144.667"/>
</g>
</svg>
