<?xml version="1.0" encoding="utf-8"?>
<!-- Generator: Adobe Illustrator 16.0.0, SVG Export Plug-In . SVG Version: 6.00 Build 0)  -->
<!DOCTYPE svg PUBLIC "-//W3C//DTD SVG 1.1//EN" "http://www.w3.org/Graphics/SVG/1.1/DTD/svg11.dtd">
<svg version="1.1" id="Слой_1" xmlns="http://www.w3.org/2000/svg" xmlns:xlink="http://www.w3.org/1999/xlink" x="0px" y="0px"
	 width="333.447px" height="37.795px" viewBox="0 0 333.447 37.795" enable-background="new 0 0 333.447 37.795"
	 xml:space="preserve">
<g>
	<path fill="#E73728" d="M25.763,17.947c2.047-1.526,3.666-3.874,3.647-7.384v-0.095c0.007-2.97-1.219-5.515-3.404-7.231
		c-2.184-1.722-5.257-2.635-8.959-2.635H0v36.596h17.447c4.051-0.002,7.484-0.811,9.973-2.543c2.494-1.729,3.949-4.451,3.933-7.867
		v-0.104C31.401,22.269,29.145,19.579,25.763,17.947 M20.107,11.863c-0.023,1.068-0.371,1.628-1.105,2.112
		c-0.743,0.477-1.991,0.754-3.598,0.748H9.146V9.002H15.9c1.512-0.004,2.604,0.311,3.252,0.78c0.642,0.475,0.941,1.046,0.955,1.98
		V11.863z M9.149,22.776h8.049c1.878-0.003,3.129,0.357,3.843,0.866c0.705,0.507,0.998,1.121,1.013,2.093v0.102
		c-0.019,1.081-0.363,1.678-1.074,2.179c-0.724,0.486-1.93,0.786-3.533,0.781H9.149V22.776z"/>
	<path fill="#E73728" d="M56.211,17.947c2.043-1.526,3.662-3.874,3.642-7.384v-0.095c0.004-2.97-1.218-5.515-3.403-7.231
		c-2.185-1.722-5.256-2.635-8.96-2.635H30.441v36.596h17.451c4.055-0.002,7.485-0.811,9.971-2.543
		c2.494-1.729,3.955-4.451,3.934-7.867v-0.104C61.848,22.269,59.588,19.579,56.211,17.947 M50.555,11.863
		c-0.024,1.068-0.368,1.628-1.11,2.112c-0.747,0.477-1.99,0.754-3.596,0.746H39.59V9.002h6.756c1.513-0.004,2.605,0.311,3.252,0.78
		c0.636,0.475,0.937,1.046,0.957,1.98V11.863z M52.497,25.735v0.102c-0.018,1.081-0.358,1.678-1.075,2.179
		c-0.723,0.486-1.928,0.786-3.53,0.781H39.59v-6.021h8.052c1.875-0.003,3.129,0.357,3.842,0.866
		C52.193,24.149,52.482,24.764,52.497,25.735"/>
	<path fill="#E73728" d="M89.314,5.827C85.885,2.556,81.019,0.6,75.34,0.6H60.885v36.599h14.463c5.679,0,10.541-1.983,13.968-5.28
		c3.434-3.291,5.422-7.887,5.422-13.019V18.8C94.738,13.668,92.75,9.094,89.314,5.827 M85.037,18.899v0.098
		c-0.043,5.786-3.801,9.548-9.697,9.597h-5.108V9.199h5.108C81.223,9.242,84.994,13.11,85.037,18.899"/>
	<path fill="#E73728" d="M126.396,5.499C122.958,2.095,118.112-0.003,112.51,0c-5.592-0.003-10.475,2.12-13.933,5.551
		c-3.461,3.426-5.512,8.163-5.512,13.349v0.097c0,5.185,2.023,9.896,5.465,13.303c3.433,3.403,8.283,5.499,13.882,5.495h0.01
		c5.598,0,10.473-2.123,13.928-5.545c3.461-3.432,5.512-8.165,5.512-13.35v-0.099C131.862,13.616,129.838,8.909,126.396,5.499
		 M102.764,18.801c0.025-5.594,3.934-10.035,9.648-10.049c5.707,0.005,9.731,4.563,9.752,10.148v0.097
		c-0.025,5.597-3.935,10.037-9.654,10.048c-5.705-0.007-9.725-4.562-9.746-10.145V18.801z"/>
	<path fill="#FFFFFF" d="M136.955,19.004v-0.105C136.955,8.307,145.258,0,156.529,0c6.385,0,10.9,1.971,14.742,5.297l-5.917,7.11
		c-2.597-2.181-5.193-3.425-8.779-3.425c-5.238,0-9.293,4.41-9.293,9.968v0.106c0,5.865,4.104,10.068,9.863,10.068
		c2.442,0,4.315-0.521,5.821-1.506v-4.413h-7.164v-7.37h16.715v16.355c-3.843,3.166-9.19,5.604-15.785,5.604
		C145.414,37.796,136.955,30.01,136.955,19.004"/>
	<path fill="#FFFFFF" d="M179.744,0.727h17.186c5.552,0,9.395,1.454,11.838,3.945c2.127,2.077,3.217,4.882,3.217,8.462v0.104
		c0,5.558-2.962,9.242-7.479,11.167l8.672,12.665h-11.631l-7.32-11.005h-0.104h-4.31v11.005h-10.069V0.727z M196.461,18.172
		c3.428,0,5.398-1.663,5.398-4.31v-0.103c0-2.856-2.076-4.311-5.451-4.311h-6.595v8.724H196.461z"/>
	<path fill="#FFFFFF" d="M216.814,19.004v-0.105C216.814,8.463,225.223,0,236.438,0c11.219,0,19.531,8.359,19.531,18.795v0.104
		c0,10.438-8.416,18.896-19.635,18.896C225.123,37.796,216.814,29.437,216.814,19.004 M245.68,19.004v-0.105
		c0-5.245-3.789-9.813-9.346-9.813c-5.502,0-9.188,4.464-9.188,9.709v0.104c0,5.243,3.787,9.807,9.291,9.807
		C241.992,28.706,245.68,24.246,245.68,19.004"/>
	<path fill="#FFFFFF" d="M261.639,21.131V0.728h10.221v20.195c0,5.243,2.652,7.734,6.699,7.734c4.053,0,6.697-2.387,6.697-7.474
		V0.728h10.23v20.144c0,11.735-6.699,16.873-17.029,16.873C268.125,37.744,261.639,32.5,261.639,21.131"/>
	<path fill="#FFFFFF" d="M302.76,0.728h15.58c9.184,0,15.107,4.725,15.107,12.769v0.108c0,8.567-6.594,13.08-15.627,13.08h-4.986
		v10.385H302.76V0.728z M317.609,18.795c3.58,0,5.762-1.869,5.762-4.726v-0.105c0-3.115-2.182-4.777-5.812-4.777h-4.725v9.608
		H317.609z"/>
</g>
</svg>
