<?xml version="1.0" encoding="utf-8"?>
<!-- Generator: Adobe Illustrator 16.0.0, SVG Export Plug-In . SVG Version: 6.00 Build 0)  -->
<!DOCTYPE svg PUBLIC "-//W3C//DTD SVG 1.1//EN" "http://www.w3.org/Graphics/SVG/1.1/DTD/svg11.dtd">
<svg version="1.1" id="Слой_1" xmlns="http://www.w3.org/2000/svg" xmlns:xlink="http://www.w3.org/1999/xlink" x="0px" y="0px"
	 width="305.487px" height="113.849px" viewBox="0 0 305.487 113.849" enable-background="new 0 0 305.487 113.849"
	 xml:space="preserve">
<polygon fill="#ED1848" points="0,2.787 0,39.182 18.479,57.528 55.194,21.125 36.697,2.787 "/>
<polygon fill="#ED1848" points="0,75.902 0,112.333 36.697,112.333 55.194,93.987 18.479,57.527 "/>
<polygon fill="#ED1848" points="55.194,93.987 73.676,112.333 110.147,112.333 110.147,75.627 91.937,57.528 "/>
<polygon fill="#ED1848" points="91.936,57.528 110.147,39.464 110.147,2.788 73.676,2.788 55.194,21.126 "/>
<g>
	<defs>
		<rect id="SVGID_1_" width="305.487" height="113.849"/>
	</defs>
	<clipPath id="SVGID_2_">
		<use xlink:href="#SVGID_1_"  overflow="visible"/>
	</clipPath>
	<path clip-path="url(#SVGID_2_)" fill-rule="evenodd" clip-rule="evenodd" fill="#ED1848" d="M305.487,48.752l-1.183-5.401
		c-1.614,0.438-2.35,0.734-3.229,0.734c-3.1,0-3.974-1.17-3.974-5.55V21.312h5.736l2.354-6.273h-8.09V5.571l-8.976,1.445v8.022
		h-3.536v6.273h3.536v18.68c0,3.222,0,3.798,0.579,5.264c1.035,3.06,4.709,5.118,9.271,5.118
		C300.338,50.374,302.838,49.784,305.487,48.752"/>
	<polygon clip-path="url(#SVGID_2_)" fill-rule="evenodd" clip-rule="evenodd" fill="#ED1848" points="163.588,49.491 
		147.314,24.384 161.967,2.779 150.791,2.779 137.397,24.095 137.397,2.779 127.83,2.779 127.83,49.491 137.397,49.491 
		137.397,25.107 151.615,49.491 	"/>
	<path clip-path="url(#SVGID_2_)" fill-rule="evenodd" clip-rule="evenodd" fill="#ED1848" d="M193.497,49.491V24.384
		c0-2.196-0.146-3.657-0.583-4.964c-1.031-2.921-4.562-4.969-8.394-4.969c-2.058,0-4.411,0.435-6.179,1.461
		c-1.474,0.734-2.936,1.899-3.972,3.215l-0.575-4.59l-7.669,1.235v33.719h9.123V29.197c0-2.485,0.737-4.228,1.916-5.397
		c1.325-1.175,2.802-1.759,4.271-1.759c2.502,0,3.232,1.612,3.232,5.543v21.907H193.497z"/>
	<polygon clip-path="url(#SVGID_2_)" fill-rule="evenodd" clip-rule="evenodd" fill="#ED1848" points="209.508,49.491 
		209.508,14.318 200.375,15.772 200.375,49.491 	"/>
	<path clip-path="url(#SVGID_2_)" fill-rule="evenodd" clip-rule="evenodd" fill="#ED1848" d="M237.643,15.387
		c0,0-0.499,1.927-0.646,2.661c-1.639-1.836-4.418-3.597-7.8-3.597c-10.748,0-14.281,9.644-14.281,18.688
		c0,8.463,3.68,16.783,13.837,16.783c2.8,0,6.032-1.607,7.065-3.357v2.926c0,5.247-0.446,7.734-7.213,7.734
		c-3.235,0-7.066-1.171-10.445-2.916l-2.21,6.267c4.411,2.19,8.531,3.512,13.103,3.512c3.526,0,8.529-0.589,11.768-3.362
		c3.381-2.766,3.527-7.733,3.527-12.553l0.034-33.854L237.643,15.387z M235.818,35.764c0,1.612-0.152,3.21-0.74,4.524
		c-0.736,1.602-2.2,2.627-4.121,2.627c-5.443,0-6.031-3.79-6.031-10.942c0-6.427,1.177-10.217,5.888-10.217
		c2.349,0,4.122,1.168,5.005,2.18V35.764z"/>
	<path clip-path="url(#SVGID_2_)" fill-rule="evenodd" clip-rule="evenodd" fill="#ED1848" d="M279.902,49.491V25.4
		c0-3.359-0.15-4.382-0.886-6.273c-1.033-3.064-4.559-4.955-8.979-4.955c-3.971,0-7.359,1.447-9.857,4.219
		c0-0.438,0.144-2.479,0.144-3.505V1.899l-9.271,1.491v46.101h9.271V30.516c0-3.189,0.414-5.045,1.475-6.276
		c1.356-1.594,3.668-2.484,5.74-2.484c2.644,0,3.531,1.458,3.531,4.668v23.067H279.902z"/>
	<path clip-path="url(#SVGID_2_)" fill-rule="evenodd" clip-rule="evenodd" fill="#ED1848" d="M210.604,5.622
		c0,3.104-2.517,5.62-5.619,5.62c-3.106,0-5.622-2.516-5.622-5.62c0-3.105,2.516-5.621,5.622-5.621
		C208.088,0,210.604,2.517,210.604,5.622"/>
	<path clip-path="url(#SVGID_2_)" fill-rule="evenodd" clip-rule="evenodd" fill="#ED1848" d="M203.644,100.728l0.055-11.68
		c0-3.568-0.146-4.672-0.594-6.128c-1.324-3.794-5.292-5.988-11.177-5.988c-3.238,0-6.188,0.57-9.569,2.046
		c-1.884,0.817-3.726,1.827-5.47,2.893l3.348,5.953c4.136-2.604,7.418-3.619,10.359-3.619c3.388,0,4.205,1.489,4.205,5.285v1.312
		h-2.139c-11.04,0-16.63,3.8-16.63,11.822c0,6.254,3.42,10.085,9.919,10.709h3.698c2.058-0.228,3.824-0.876,5.215-1.798
		c0.743-0.442,1.474-1.198,2.215-1.922c0.733,1.443,2.151,2.811,3.786,3.72l1.065,0.517l0.485-0.517l4.653-5.019
		C203.976,105.985,203.644,104.278,203.644,100.728 M189.718,106.862c-2.353,0-3.974-1.899-3.974-4.525
		c0-4.087,2.056-5.617,8.389-5.617h0.522l0.014,8.011C193.34,106.196,191.482,106.862,189.718,106.862"/>
	<polygon clip-path="url(#SVGID_2_)" fill-rule="evenodd" clip-rule="evenodd" fill="#ED1848" points="153.198,65.408 
		127.742,65.408 127.742,112.11 137.01,112.11 137.01,91.392 149.071,91.392 149.071,83.818 137.01,83.818 137.01,72.874 
		152.022,72.874 	"/>
	<path clip-path="url(#SVGID_2_)" fill-rule="evenodd" clip-rule="evenodd" fill="#ED1848" d="M174.387,77.516
		c-1.472-0.584-2.064-0.727-3.39-0.727c-3.379,0-6.767,3.063-8.234,5.395l-0.889-4.668l-7.361,1.189v33.404h9.125V90.761
		c0-1.747,0.292-3.216,1.323-4.341c0.876-0.94,2.353-1.607,4.01-1.607c1.033,0,2.216,0.297,3.1,0.731L174.387,77.516z"/>
	<polygon clip-path="url(#SVGID_2_)" fill-rule="evenodd" clip-rule="evenodd" fill="#ED1848" points="245.473,66.317 
		245.473,112.11 254.594,112.11 254.594,64.859 	"/>
	<polygon clip-path="url(#SVGID_2_)" fill-rule="evenodd" clip-rule="evenodd" fill="#ED1848" points="263.425,92.122 
		274.609,77.659 263.566,77.659 254.594,92.555 266.45,112.11 277.116,112.11 	"/>
	<path clip-path="url(#SVGID_2_)" fill-rule="evenodd" clip-rule="evenodd" fill="#ED1848" d="M238.595,112.11V87.004
		c0-2.191-0.143-3.643-0.59-4.956c-1.031-2.922-4.566-4.966-8.391-4.966c-2.059,0-4.416,0.434-6.179,1.465
		c-1.475,0.733-2.942,1.892-3.972,3.203l-0.579-4.584l-7.659,1.233v33.71h9.118V91.832c0-2.478,0.742-4.236,1.918-5.412
		c1.32-1.162,2.793-1.753,4.268-1.753c2.501,0,3.238,1.617,3.238,5.554v21.89H238.595z"/>
</g>
</svg>
