<?xml version="1.0" encoding="utf-8"?>
<!-- Generator: Adobe Illustrator 16.0.0, SVG Export Plug-In . SVG Version: 6.00 Build 0)  -->
<!DOCTYPE svg PUBLIC "-//W3C//DTD SVG 1.1//EN" "http://www.w3.org/Graphics/SVG/1.1/DTD/svg11.dtd">
<svg version="1.1" id="Слой_1" xmlns="http://www.w3.org/2000/svg" xmlns:xlink="http://www.w3.org/1999/xlink" x="0px" y="0px"
	 width="77.077px" height="113.296px" viewBox="0 0 77.077 113.296" enable-background="new 0 0 77.077 113.296"
	 xml:space="preserve">
<rect y="50.36" fill="#828282" width="23.697" height="23.696"/>
<rect x="26.654" y="50.36" fill="#828282" width="23.697" height="23.697"/>
<rect x="53.318" y="50.36" fill="#828282" width="23.695" height="23.696"/>
<rect y="77.013" fill="#828282" width="23.697" height="23.697"/>
<rect x="26.654" y="77.014" fill="#828282" width="23.697" height="23.697"/>
<rect x="53.318" y="77.013" fill="#828282" width="23.695" height="23.697"/>
<rect y="23.697" fill="#828282" width="23.697" height="23.696"/>
<polygon fill="#828282" points="53.48,0 26.655,23.696 26.655,47.393 53.48,23.696 "/>
<polygon fill="#828282" points="77.014,0 52.628,23.696 52.628,47.393 77.014,23.696 "/>
<rect x="74.048" y="20.739" fill="#828282" width="2.966" height="29.621"/>
<g>
	<path fill="#828282" d="M1.362,113.166l0.01-5.619l1.395,5.619h1.385l1.414-5.619v5.619H6.9v-7.133H4.729l-1.256,4.862
		l-1.285-4.862H0.026v7.133H1.362z M8.982,112.319c0.627,0.647,1.474,0.977,2.53,0.977c1.056,0,1.893-0.329,2.52-0.977
		c0.628-0.657,0.937-1.555,0.937-2.709c0-1.166-0.319-2.072-0.947-2.73c-0.627-0.647-1.474-0.976-2.52-0.976
		c-0.588,0-1.096,0.089-1.544,0.278c-0.329,0.14-0.638,0.358-0.927,0.647c-0.279,0.289-0.498,0.618-0.657,0.976
		c-0.219,0.499-0.329,1.106-0.329,1.834C8.045,110.785,8.354,111.672,8.982,112.319 M10.078,107.747
		c0.359-0.409,0.847-0.608,1.435-0.608c0.598,0,1.076,0.199,1.435,0.608c0.358,0.398,0.538,1.006,0.538,1.833
		s-0.19,1.444-0.558,1.863c-0.369,0.408-0.837,0.617-1.415,0.617s-1.046-0.209-1.425-0.628c-0.368-0.419-0.558-1.025-0.558-1.832
		C9.53,108.773,9.709,108.155,10.078,107.747 M20.06,111.682c-0.269,0.249-0.598,0.368-0.986,0.368
		c-0.518,0-0.937-0.188-1.266-0.577c-0.328-0.379-0.488-1.017-0.488-1.923c0-0.847,0.17-1.465,0.498-1.843
		c0.329-0.379,0.757-0.568,1.285-0.568c0.379,0,0.708,0.11,0.977,0.319c0.269,0.219,0.448,0.508,0.528,0.876l1.424-0.338
		c-0.159-0.568-0.408-1.006-0.727-1.315c-0.548-0.518-1.255-0.776-2.132-0.776c-0.996,0-1.803,0.328-2.421,0.985
		c-0.607,0.657-0.916,1.584-0.916,2.771c0,1.125,0.309,2.002,0.916,2.649c0.608,0.647,1.385,0.977,2.332,0.977
		c0.767,0,1.404-0.189,1.902-0.568c0.498-0.389,0.857-0.966,1.066-1.753l-1.394-0.429C20.538,111.054,20.338,111.443,20.06,111.682
		 M23.307,113.166h1.444v-3.118c0.239,0,0.419,0.05,0.538,0.141c0.12,0.089,0.269,0.308,0.448,0.656c0.1,0.199,0.16,0.31,0.18,0.34
		c0.04,0.068,0.07,0.118,0.079,0.148l0.857,1.833h1.694l-0.976-1.952c-0.25-0.498-0.479-0.896-0.688-1.166
		c-0.199-0.278-0.468-0.458-0.787-0.548c0.259-0.148,0.438-0.309,0.538-0.468c0.1-0.169,0.199-0.379,0.289-0.618
		c0.159-0.468,0.289-0.777,0.369-0.926c0.089-0.15,0.199-0.259,0.338-0.329c0.13-0.08,0.349-0.12,0.648-0.12l0.199,0.01v-1.065
		h-0.209c-0.668,0-1.146,0.1-1.445,0.289c-0.299,0.189-0.597,0.668-0.896,1.444c-0.239,0.608-0.409,0.977-0.528,1.106
		c-0.11,0.129-0.329,0.219-0.648,0.249v-3.039h-1.444V113.166z M32.929,106.033h-1.524l-2.769,7.133h1.524l0.598-1.624h2.859
		l0.618,1.624h1.554L32.929,106.033z M31.196,110.337l0.966-2.64l0.987,2.64H31.196z M36.575,113.166h1.444v-5.927h2.78v5.927h1.443
		v-7.133h-5.667V113.166z M47.682,111.682c-0.27,0.249-0.598,0.368-0.986,0.368c-0.518,0-0.937-0.188-1.266-0.577
		c-0.328-0.379-0.488-1.017-0.488-1.923c0-0.847,0.17-1.465,0.498-1.843c0.329-0.379,0.758-0.568,1.286-0.568
		c0.378,0,0.707,0.11,0.976,0.319c0.27,0.219,0.448,0.508,0.528,0.876l1.425-0.338c-0.16-0.568-0.409-1.006-0.728-1.315
		c-0.548-0.518-1.255-0.776-2.132-0.776c-0.996,0-1.804,0.328-2.421,0.985c-0.607,0.657-0.916,1.584-0.916,2.771
		c0,1.125,0.309,2.002,0.916,2.649s1.385,0.977,2.332,0.977c0.767,0,1.403-0.189,1.901-0.568c0.499-0.389,0.857-0.966,1.066-1.753
		l-1.395-0.429C48.159,111.054,47.961,111.443,47.682,111.682 M53.957,113.166v-5.927h2.102v-1.206H50.4v1.206h2.112v5.927H53.957z
		 M58.439,113.166v-2.689h0.937c0.647,0,1.146-0.029,1.493-0.1c0.25-0.06,0.499-0.17,0.738-0.339
		c0.249-0.169,0.448-0.408,0.607-0.707c0.16-0.299,0.24-0.668,0.24-1.105c0-0.568-0.141-1.026-0.409-1.386
		c-0.279-0.358-0.618-0.598-1.026-0.696c-0.269-0.07-0.837-0.11-1.714-0.11h-2.312v7.133H58.439z M59.137,107.239
		c0.508,0,0.856,0.02,1.025,0.049c0.239,0.04,0.43,0.15,0.578,0.319c0.149,0.17,0.229,0.379,0.229,0.647
		c0,0.209-0.05,0.389-0.159,0.548c-0.11,0.159-0.259,0.279-0.449,0.358c-0.188,0.07-0.566,0.11-1.135,0.11h-0.787v-2.032H59.137z
		 M64.276,112.319c0.627,0.647,1.475,0.977,2.53,0.977s1.893-0.329,2.521-0.977c0.628-0.657,0.937-1.555,0.937-2.709
		c0-1.166-0.319-2.072-0.946-2.73c-0.628-0.647-1.475-0.976-2.521-0.976c-0.587,0-1.097,0.089-1.544,0.278
		c-0.329,0.14-0.638,0.358-0.927,0.647c-0.278,0.289-0.499,0.618-0.657,0.976c-0.22,0.499-0.329,1.106-0.329,1.834
		C63.34,110.785,63.648,111.672,64.276,112.319 M65.373,107.747c0.357-0.409,0.846-0.608,1.434-0.608
		c0.598,0,1.076,0.199,1.435,0.608c0.358,0.398,0.538,1.006,0.538,1.833s-0.188,1.444-0.558,1.863
		c-0.369,0.408-0.837,0.617-1.415,0.617s-1.046-0.209-1.424-0.628c-0.369-0.419-0.559-1.025-0.559-1.832
		C64.824,108.773,65.004,108.155,65.373,107.747 M71.408,113.166h1.436l2.889-4.672v4.672h1.345v-7.133h-1.435l-2.889,4.752v-4.752
		h-1.346V113.166z M74.855,104.489c-0.139,0.12-0.349,0.179-0.607,0.179c-0.27,0-0.469-0.059-0.607-0.179
		c-0.14-0.12-0.22-0.289-0.249-0.519h-0.668c0.04,0.438,0.199,0.787,0.468,1.036c0.27,0.249,0.618,0.379,1.057,0.379
		c0.429,0,0.776-0.13,1.046-0.379c0.278-0.249,0.429-0.598,0.469-1.036h-0.668C75.074,104.2,74.994,104.369,74.855,104.489"/>
</g>
</svg>
