<?xml version="1.0" encoding="utf-8"?>
<!-- Generator: Adobe Illustrator 16.0.0, SVG Export Plug-In . SVG Version: 6.00 Build 0)  -->
<!DOCTYPE svg PUBLIC "-//W3C//DTD SVG 1.1//EN" "http://www.w3.org/Graphics/SVG/1.1/DTD/svg11.dtd">
<svg version="1.1" id="Слой_1" xmlns="http://www.w3.org/2000/svg" xmlns:xlink="http://www.w3.org/1999/xlink" x="0px" y="0px"
	 width="500px" height="500px" viewBox="0 0 500 500" enable-background="new 0 0 500 500" xml:space="preserve">
<path fill="#FFFFFF" d="M401.741,329.684l-2.481-3.033c-19.299-24.537-35.473-37.219-49.441-38.873
	c-11.947-1.654-23.619,6.617-35.934,15.163l-13.233,8.271c-1.562,0.736-3.124,1.379-4.595,1.838
	c-7.72,2.206-27.203,3.492-38.23-6.616c-12.773-11.763-32.717-33.268-48.236-52.015c-14.795-19.483-31.084-43.652-39.527-58.988
	c-7.169-12.866-1.195-30.982,2.848-37.69c0.828-1.286,1.839-2.562,2.941-3.86l11.672-10.752c0.184-0.184,0.275-0.367,0.379-0.54
	c0.184-0.092,0.344-0.092,0.436-0.184c10.5-8.822,21.321-18.024,22.895-29.695c1.746-13.784-6.893-32.44-26.271-56.886l-2.309-3.033
	c-12.051-15.428-30.235-38.678-56.323-34.818c-10.212,1.459-19.413,4.962-28.868,10.914c-0.092,0-0.092,0.195-0.184,0.195
	c-0.092,0.092-0.195,0.092-0.287,0.092l-13.131,9.833c-0.092,0-0.184,0.184-0.367,0.287c-0.104,0.092-0.195,0.184-0.355,0.275
	c-1.482,1.275-3.033,2.562-4.516,3.952C65.297,55.352,36.336,89.917,56.106,153.787c12.683,41.264,38.954,89.418,76.013,139.504
	l-0.379,0.275l20.493,25.549l0.184-0.184c40.16,47.604,81.147,84.363,118.643,106.604c24.997,14.887,46.869,19.85,64.882,19.85
	c23.709,0,40.619-8.547,49.166-14.061l5.33-3.584c0.643-0.459,1.011-1.011,1.471-1.562l11.671-8.73
	c0.092-0.092,0.161-0.275,0.368-0.367c0-0.092,0.092-0.092,0.184-0.092c8.271-7.628,14.061-15.531,18.012-24.905
	C432.436,368.006,413.964,344.938,401.741,329.684L401.741,329.684z M408.266,386.201c-3.032,7.261-7.627,13.51-14.152,19.483
	l-17.369,13.05c-15.623,10.201-49.258,22.791-97.965-6.158c-37.495-22.239-78.77-59.826-119.47-108.809l-10.937-13.877
	c-38.322-50.729-65.145-99.332-77.919-140.503C53.981,95.799,74.762,67.114,88.73,54.72c1.367-1.298,2.758-2.47,4.147-3.677
	l0.092-0.092l12.591-9.361c7.707-4.803,14.795-7.548,23.055-8.754c17.449-2.654,31.705,15.818,42.078,29.155l2.505,3.124
	c21.688,27.387,23.778,40.321,23.056,45.663c-0.736,5.882-9.65,13.417-17.553,20.114l-1.207,0.92c0,0,0,0.092-0.092,0.092
	c0,0.104-0.068,0.104-0.068,0.104l-12.051,11.119c-0.092,0.104-0.184,0.195-0.184,0.287c-0.092,0.092-0.287,0.161-0.379,0.253
	c-1.827,2.033-3.389,4.147-4.676,6.353c-6.801,11.292-13.131,34.658-3.137,52.75c8.822,15.807,25.549,40.804,40.919,60.93
	c16.071,19.482,36.554,41.631,49.89,53.762c9.926,9.098,23.803,12.131,35.75,12.131c6.432,0,12.314-0.828,16.816-2.114
	c2.298-0.644,4.779-1.653,7.261-2.849c0.184-0.092,0.184-0.184,0.368-0.275c0.092-0.092,0.184-0.092,0.275-0.092l13.969-8.73
	c0.459-0.368,0.734-0.736,1.103-1.104l0.184,0.184c8.639-5.973,18.38-12.957,24.537-11.946c5.423,0.644,17.829,5.882,39.517,33.268
	l2.482,3.216C400.547,352.291,415.066,370.395,408.266,386.201L408.266,386.201z M408.266,386.201"/>
</svg>
