<?xml version="1.0" encoding="utf-8"?>
<!-- Generator: Adobe Illustrator 16.0.0, SVG Export Plug-In . SVG Version: 6.00 Build 0)  -->
<!DOCTYPE svg PUBLIC "-//W3C//DTD SVG 1.1//EN" "http://www.w3.org/Graphics/SVG/1.1/DTD/svg11.dtd">
<svg version="1.1" id="Слой_1" xmlns="http://www.w3.org/2000/svg" xmlns:xlink="http://www.w3.org/1999/xlink" x="0px" y="0px"
	 width="295.334px" height="295.334px" viewBox="0 0 295.334 295.334" enable-background="new 0 0 295.334 295.334"
	 xml:space="preserve">
<g>
	<path fill="#FFFFFF" d="M147.705,92.789h-0.077c-2.097,0-3.796-1.7-3.796-3.797v-31.53c0-2.098,1.7-3.798,3.796-3.798h0.077
		c2.098,0,3.797,1.7,3.797,3.798v31.53C151.502,91.089,149.803,92.789,147.705,92.789"/>
	<path fill="#FFFFFF" d="M108.89,108.835l-0.054,0.054c-1.483,1.483-3.888,1.483-5.371,0L81.169,86.594
		c-1.483-1.483-1.483-3.887,0-5.37l0.055-0.054c1.482-1.483,3.887-1.483,5.37,0l22.295,22.295
		C110.373,104.948,110.373,107.353,108.89,108.835"/>
	<path fill="#FFFFFF" d="M92.789,147.628v0.077c0,2.097-1.7,3.797-3.797,3.797h-31.53c-2.098,0-3.798-1.7-3.798-3.797v-0.077
		c0-2.097,1.7-3.797,3.798-3.797h31.53C91.089,143.832,92.789,145.532,92.789,147.628"/>
	<path fill="#FFFFFF" d="M108.835,186.444l0.054,0.054c1.483,1.483,1.483,3.889,0,5.371l-22.295,22.295
		c-1.483,1.483-3.887,1.483-5.37,0l-0.054-0.055c-1.483-1.482-1.483-3.887,0-5.37l22.295-22.295
		C104.948,184.961,107.353,184.961,108.835,186.444"/>
	<path fill="#FFFFFF" d="M147.629,202.545h0.077c2.097,0,3.797,1.7,3.797,3.797v31.53c0,2.098-1.7,3.798-3.797,3.798h-0.077
		c-2.097,0-3.797-1.7-3.797-3.798v-31.53C143.832,204.245,145.532,202.545,147.629,202.545"/>
	<path fill="#FFFFFF" d="M186.444,186.499l0.054-0.055c1.483-1.482,3.889-1.482,5.371,0l22.295,22.295
		c1.483,1.483,1.483,3.888,0,5.37l-0.055,0.055c-1.482,1.482-3.887,1.482-5.37,0l-22.295-22.296
		C184.961,190.386,184.961,187.981,186.444,186.499"/>
	<path fill="#FFFFFF" d="M202.545,147.705v-0.077c0-2.097,1.7-3.797,3.797-3.797h31.53c2.098,0,3.798,1.7,3.798,3.797v0.077
		c0,2.098-1.7,3.797-3.798,3.797h-31.53C204.245,151.502,202.545,149.803,202.545,147.705"/>
	<path fill="#FFFFFF" d="M186.499,108.89l-0.055-0.054c-1.482-1.483-1.482-3.888,0-5.371l22.295-22.295
		c1.483-1.483,3.888-1.483,5.37,0l0.055,0.055c1.482,1.483,1.482,3.887,0,5.37l-22.296,22.295
		C190.386,110.373,187.981,110.373,186.499,108.89"/>
	<path fill="#FFFFFF" d="M191.817,147.667c0-24.384-19.767-44.151-44.15-44.151c-24.384,0-44.151,19.767-44.151,44.151
		s19.767,44.151,44.151,44.151C172.051,191.818,191.817,172.051,191.817,147.667"/>
	<circle fill="none" stroke="#FFFFFF" stroke-width="6" stroke-miterlimit="10" cx="147.667" cy="147.667" r="144.667"/>
</g>
</svg>
