<?xml version="1.0" encoding="utf-8"?>
<!-- Generator: Adobe Illustrator 16.0.0, SVG Export Plug-In . SVG Version: 6.00 Build 0)  -->
<!DOCTYPE svg PUBLIC "-//W3C//DTD SVG 1.1//EN" "http://www.w3.org/Graphics/SVG/1.1/DTD/svg11.dtd">
<svg version="1.1" id="Слой_1" xmlns="http://www.w3.org/2000/svg" xmlns:xlink="http://www.w3.org/1999/xlink" x="0px" y="0px"
	 width="215px" height="101px" viewBox="0 0 215 101" enable-background="new 0 0 215 101" xml:space="preserve">
<g>
	<path fill="#FFFFFF" d="M19.282,11.063c0,2.355-0.053,4.762-0.152,7.222c-0.101,2.454-0.25,4.811-0.454,7.066
		c-0.249,2.258-0.551,4.265-0.9,6.121c-0.402,1.805-0.903,3.208-1.506,4.213c-0.55,0.952-1.253,1.652-2.006,2.106
		c-0.75,0.449-1.604,0.65-2.455,0.65c-0.704,0-1.454-0.101-2.257-0.3L9,40.397c0.45,0.148,0.951,0.3,1.454,0.352
		c0.451,0.05,1.003,0.1,1.557,0.1c1.252,0,2.406-0.303,3.406-0.853c1.006-0.553,1.905-1.405,2.659-2.454
		c0.853-1.157,1.506-2.76,2.007-4.716c0.5-1.958,0.904-4.213,1.153-6.769c0.253-2.509,0.453-5.215,0.552-8.125
		c0.049-2.959,0.101-5.966,0.101-9.026h17.5v31.292h2.609V6.601H19.282V11.063z M50.447,36.284V6.601h-2.608v33.597h2.708
		L73.615,10.51v29.688h2.605V6.601h-2.504L50.447,36.284z M82.745,47.817l0.45-7.62h31.489l0.455,7.62h1.854l0.351-7.12V37.89
		h-4.912V6.601H90.215V9.96c0,2.206-0.053,4.362-0.2,6.469c-0.152,2.157-0.302,4.164-0.603,6.066
		c-0.203,1.908-0.503,3.661-0.903,5.265c-0.299,1.655-0.7,3.06-1.152,4.262c-0.301,0.854-0.699,1.656-1.154,2.359
		c-0.452,0.75-0.953,1.354-1.505,1.903c-0.501,0.502-1,0.902-1.503,1.205c-0.549,0.25-1.002,0.401-1.456,0.401h-1.201v2.859
		l0.35,7.068H82.745z M89.264,34.079c0.8-1.755,1.454-3.91,1.954-6.519c0.554-2.506,0.906-5.416,1.204-8.577
		c0.202-3.158,0.35-6.517,0.35-10.078h17.05V37.89H86.403C87.507,37.136,88.46,35.885,89.264,34.079 M147.333,37.89h-21.914V23.9
		h18.306v-2.256h-18.306V8.856h20.962V6.601h-23.568v33.597h24.521V37.89z M178.218,22.748c0.651-1.457,1.001-3.06,1.001-4.816
		c0-1.654-0.299-3.209-0.951-4.612c-0.65-1.354-1.504-2.558-2.606-3.56c-1.104-1.002-2.408-1.756-3.962-2.359
		c-1.504-0.5-3.16-0.8-4.913-0.8h-13.744v33.597h2.61V29.465h10.631c1.806,0,3.511-0.249,5.064-0.801
		c1.557-0.551,2.957-1.304,4.11-2.307C176.611,25.352,177.562,24.15,178.218,22.748 M173.604,24.753
		c-0.951,0.751-2.057,1.353-3.309,1.805c-1.257,0.402-2.656,0.601-4.212,0.601h-10.431V8.905h10.779c3.059,0,5.52,0.806,7.371,2.407
		c1.856,1.604,2.762,3.813,2.762,6.67c0,1.457-0.254,2.708-0.756,3.861C175.258,22.997,174.557,23.95,173.604,24.753 M12.341,89.216
		V59.534H9.736v33.595h2.705l23.067-29.688v29.688h2.606V59.534h-2.507L12.341,89.216z M69.461,74.727H46.948V59.534h-2.609v33.595
		h2.609V77.032h22.513v16.097h2.608V59.534h-2.608V74.727z M103.807,78.539c-0.551-0.754-1.153-1.354-1.855-1.854
		c-0.752-0.509-1.506-0.855-2.358-1.106v-0.501c1.307-0.651,2.258-1.652,2.909-2.912c0.654-1.251,0.953-2.605,0.953-4.061
		c0-1.152-0.25-2.205-0.703-3.258c-0.449-1.054-1.153-1.953-2.105-2.707c-0.902-0.806-2.054-1.453-3.409-1.906
		c-1.404-0.453-3.012-0.7-4.863-0.7H78.985v33.595H93.78c1.953,0,3.709-0.248,5.165-0.701c1.454-0.5,2.708-1.152,3.662-2.005
		c0.951-0.854,1.702-1.808,2.152-2.907c0.502-1.104,0.754-2.306,0.754-3.563c0-1.054-0.15-2.002-0.454-2.954
		C104.759,80.091,104.359,79.291,103.807,78.539 M81.59,61.841h10.584c5.766,0,8.626,2.054,8.626,6.166
		c0,0.902-0.152,1.755-0.354,2.56c-0.3,0.752-0.7,1.453-1.202,2.007c-0.604,0.601-1.304,1.053-2.157,1.399
		c-0.854,0.301-1.953,0.454-3.209,0.454H81.59V61.841z M100.547,88.918c-1.504,1.25-3.76,1.904-6.767,1.904H81.59V76.686h12.592
		c2.856,0,5.062,0.647,6.466,1.953c1.504,1.305,2.204,3.008,2.204,5.166C102.852,85.909,102.103,87.614,100.547,88.918
		 M113.896,76.83h18.303v-2.253h-18.303V61.789h20.959v-2.255h-23.567v33.595h24.521v-2.307h-21.912V76.83z M163.984,90.369
		c-2.006,0.752-4.159,1.154-6.52,1.154c-2.154,0-4.158-0.351-6.017-1.049c-1.855-0.705-3.409-1.705-4.813-3.061
		c-1.305-1.307-2.406-2.911-3.107-4.766c-0.807-1.858-1.154-3.965-1.154-6.316c0-2.262,0.35-4.366,1.154-6.221
		c0.701-1.854,1.752-3.461,3.107-4.766c1.354-1.352,2.958-2.354,4.813-3.104c1.856-0.755,3.909-1.107,6.169-1.107
		c4.361,0,8.072,1.308,11.131,3.866l1.404-1.859c-0.752-0.651-1.657-1.199-2.557-1.752c-1.004-0.554-2.007-1.007-3.01-1.354
		c-1.104-0.4-2.159-0.705-3.26-0.904c-1.104-0.202-2.157-0.301-3.209-0.301c-2.809,0-5.366,0.452-7.623,1.354
		c-2.256,0.903-4.212,2.157-5.814,3.709c-1.605,1.555-2.859,3.414-3.662,5.567c-0.902,2.158-1.304,4.465-1.304,6.972
		c0,2.707,0.399,5.166,1.304,7.272c0.803,2.204,2.006,4.011,3.562,5.511c1.553,1.458,3.357,2.612,5.564,3.413
		c2.106,0.799,4.513,1.205,7.068,1.205c5.469,0,10.028-1.66,13.689-4.966l-1.555-1.76C167.697,88.516,165.891,89.621,163.984,90.369
		 M175.441,59.534v2.307h13.391v31.288h2.605V61.841h13.391v-2.307H175.441z"/>
</g>
</svg>
