<?xml version="1.0" encoding="utf-8"?>
<!-- Generator: Adobe Illustrator 16.0.0, SVG Export Plug-In . SVG Version: 6.00 Build 0)  -->
<!DOCTYPE svg PUBLIC "-//W3C//DTD SVG 1.1//EN" "http://www.w3.org/Graphics/SVG/1.1/DTD/svg11.dtd">
<svg version="1.1" id="Слой_1" xmlns="http://www.w3.org/2000/svg" xmlns:xlink="http://www.w3.org/1999/xlink" x="0px" y="0px"
	 width="133.149px" height="133.15px" viewBox="0 0 133.149 133.15" enable-background="new 0 0 133.149 133.15"
	 xml:space="preserve">
<path fill="#89969F" d="M101.283,66.575c0-19.141-15.572-34.707-34.707-34.707c-19.138,0-34.71,15.566-34.71,34.707
	c0,19.139,15.572,34.708,34.71,34.708C85.711,101.283,101.283,85.714,101.283,66.575z M59.827,73.322h-4.328V44.227h4.328V73.322z
	 M67.718,89.24h-4.344V60.144c4.976-0.999,5.281-4.887,5.281-8.144c0-4.221-1.608-6.96-6.229-7.589
	c5.567,0,11.041,2.147,11.041,7.736c0,4.85-5.276,7.996-9.777,7.996h4.027V89.24z M79.655,67.288c0,3.999-3.448,5.922-6.213,6.774
	c1.659-1.406,1.729-4.184,1.729-6.404c0-3.738-1.925-6.958-5.874-7.477C73.246,60.181,79.655,61.958,79.655,67.288z M71.43,89.128
	c3.83-1.111,5.944-3.924,5.944-7.293c0-3.258-0.693-5.738-3.852-7.625c4.58,0.555,8.648,3.404,8.648,7.328
	C82.171,86.056,77.076,89.128,71.43,89.128z"/>
<polygon fill="#89969F" points="71.675,27.484 78.549,13.593 76.275,9.32 70.877,27.389 "/>
<polygon fill="#89969F" points="67.936,27.177 73.113,4.515 69.574,0 63.574,0 60.036,4.515 65.213,27.177 "/>
<polygon fill="#89969F" points="62.272,27.389 56.874,9.32 54.6,13.594 61.474,27.484 "/>
<polygon fill="#89969F" points="71.675,105.666 70.877,105.761 76.275,123.83 78.549,119.558 "/>
<polygon fill="#89969F" points="69.574,133.15 73.113,128.636 67.936,105.972 65.213,105.972 60.036,128.636 63.574,133.15 "/>
<polygon fill="#89969F" points="56.874,123.83 62.272,105.761 61.474,105.666 54.6,119.558 "/>
<polygon fill="#89969F" points="46.348,12.141 50.707,30.487 51.446,30.171 50.454,14.703 "/>
<polygon fill="#89969F" points="54.603,21.897 54.46,29.078 58.318,28.045 "/>
<polygon fill="#89969F" points="52.996,1.448 45.771,3.384 50.671,7.222 "/>
<polygon fill="#89969F" points="48.055,31.775 41.207,9.56 35.885,7.419 30.688,10.42 29.882,16.099 45.697,33.136 "/>
<polygon fill="#89969F" points="42.611,35.271 43.255,34.79 29.546,21.841 29.713,26.679 "/>
<polygon fill="#89969F" points="89.894,98.361 103.603,111.308 103.437,106.47 90.537,97.878 "/>
<polygon fill="#89969F" points="97.264,125.73 102.46,122.73 103.268,117.052 87.452,100.013 85.095,101.375 91.942,123.589 "/>
<polygon fill="#89969F" points="86.801,121.009 82.441,102.662 81.703,102.978 82.695,118.445 "/>
<polygon fill="#89969F" points="78.688,104.07 74.831,105.105 78.546,111.251 "/>
<polygon fill="#89969F" points="82.478,125.929 80.152,131.703 87.378,129.765 "/>
<polygon fill="#89969F" points="34.789,43.256 35.271,42.612 26.679,29.714 21.841,29.547 "/>
<polygon fill="#89969F" points="37.335,40.159 40.159,37.336 33.868,33.869 "/>
<polygon fill="#89969F" points="22.252,16.962 16.962,22.252 23.125,23.125 "/>
<polygon fill="#89969F" points="31.773,48.055 33.136,45.696 16.098,29.882 10.418,30.688 7.418,35.886 9.559,41.208 "/>
<polygon fill="#89969F" points="12.141,46.349 14.704,50.454 30.171,51.446 30.487,50.708 "/>
<polygon fill="#89969F" points="121.009,86.8 118.445,82.695 102.979,81.703 102.662,82.441 "/>
<polygon fill="#89969F" points="125.729,97.263 123.59,91.941 101.375,85.095 100.014,87.453 117.052,103.267 122.729,102.46 "/>
<polygon fill="#89969F" points="97.877,90.537 106.471,103.435 111.308,103.603 98.36,89.894 "/>
<polygon fill="#89969F" points="92.989,95.814 99.28,99.281 95.813,92.99 "/>
<polygon fill="#89969F" points="116.187,110.898 110.024,110.025 110.897,116.187 "/>
<polygon fill="#89969F" points="9.32,56.874 27.388,62.272 27.482,61.474 13.593,54.6 "/>
<polygon fill="#89969F" points="21.896,54.604 28.044,58.318 29.078,54.46 "/>
<polygon fill="#89969F" points="3.385,45.771 1.447,52.996 7.222,50.671 "/>
<polygon fill="#89969F" points="27.177,67.937 27.177,65.213 4.515,60.035 0,63.574 0,69.576 4.515,73.115 "/>
<polygon fill="#89969F" points="13.593,78.548 27.482,71.675 27.388,70.876 9.32,76.275 "/>
<polygon fill="#89969F" points="119.557,54.6 105.666,61.475 105.761,62.272 123.829,56.874 "/>
<polygon fill="#89969F" points="105.972,65.213 105.973,67.937 128.634,73.115 133.148,69.576 133.149,63.574 128.634,60.035 "/>
<polygon fill="#89969F" points="123.829,76.275 105.761,70.876 105.666,71.675 119.557,78.55 "/>
<polygon fill="#89969F" points="111.252,78.546 105.104,74.832 104.07,78.689 "/>
<polygon fill="#89969F" points="125.928,82.478 129.765,87.378 131.701,80.154 "/>
<polygon fill="#89969F" points="30.171,81.703 14.704,82.695 12.141,86.802 30.487,82.441 "/>
<polygon fill="#89969F" points="29.078,78.689 28.045,74.832 21.896,78.546 "/>
<polygon fill="#89969F" points="3.384,87.378 7.222,82.478 1.447,80.152 "/>
<polygon fill="#89969F" points="31.773,85.095 9.559,91.941 7.418,97.263 10.418,102.46 16.098,103.267 33.136,87.453 "/>
<polygon fill="#89969F" points="21.841,103.603 26.678,103.435 35.271,90.537 34.789,89.894 "/>
<polygon fill="#89969F" points="98.359,43.256 111.308,29.547 106.471,29.714 97.877,42.612 "/>
<polygon fill="#89969F" points="101.375,48.055 123.59,41.208 125.729,35.886 122.73,30.688 117.051,29.882 100.014,45.697 "/>
<polygon fill="#89969F" points="102.979,51.446 118.445,50.454 121.008,46.348 102.662,50.707 "/>
<polygon fill="#89969F" points="111.252,54.604 104.07,54.46 105.104,58.318 "/>
<polygon fill="#89969F" points="129.765,45.771 125.928,50.671 131.701,52.996 "/>
<polygon fill="#89969F" points="42.611,97.878 29.713,106.47 29.546,111.308 43.255,98.361 "/>
<polygon fill="#89969F" points="37.335,92.99 33.868,99.281 40.158,95.814 "/>
<polygon fill="#89969F" points="23.125,110.025 16.962,110.898 22.251,116.187 "/>
<polygon fill="#89969F" points="35.885,125.73 41.207,123.589 48.055,101.375 45.696,100.013 29.882,117.052 30.688,122.73 "/>
<polygon fill="#89969F" points="46.348,121.009 50.453,118.445 51.445,102.978 50.707,102.662 "/>
<polygon fill="#89969F" points="54.603,111.253 58.318,105.105 54.459,104.07 "/>
<polygon fill="#89969F" points="52.996,131.703 50.671,125.927 45.77,129.765 "/>
<polygon fill="#89969F" points="82.695,14.703 81.702,30.171 82.441,30.487 86.8,12.141 "/>
<polygon fill="#89969F" points="74.831,28.045 78.688,29.078 78.546,21.897 "/>
<polygon fill="#89969F" points="87.378,3.384 80.152,1.448 82.478,7.222 "/>
<polygon fill="#89969F" points="87.452,33.136 103.268,16.099 102.46,10.42 97.264,7.419 91.941,9.56 85.095,31.775 "/>
<polygon fill="#89969F" points="90.537,35.271 103.437,26.679 103.603,21.841 89.894,34.79 "/>
<polygon fill="#89969F" points="92.989,37.336 95.813,40.159 99.279,33.869 "/>
<polygon fill="#89969F" points="110.897,16.962 110.023,23.125 116.186,22.252 "/>
</svg>
