<?xml version="1.0" encoding="utf-8"?>
<!-- Generator: Adobe Illustrator 16.0.0, SVG Export Plug-In . SVG Version: 6.00 Build 0)  -->
<!DOCTYPE svg PUBLIC "-//W3C//DTD SVG 1.1//EN" "http://www.w3.org/Graphics/SVG/1.1/DTD/svg11.dtd">
<svg version="1.1" id="Слой_1" xmlns="http://www.w3.org/2000/svg" xmlns:xlink="http://www.w3.org/1999/xlink" x="0px" y="0px"
	 width="299.583px" height="218.167px" viewBox="0 0 299.583 218.167" enable-background="new 0 0 299.583 218.167"
	 xml:space="preserve">
<g>
	<path fill="#FFFFFF" d="M67.679,166.274c0.406-0.732,0.625-1.6,0.625-2.578c0-0.785-0.109-1.52-0.354-2.225
		c-0.244-0.705-0.624-1.328-1.166-1.871c-0.571-0.516-1.303-0.949-2.226-1.248s-2.062-0.461-3.445-0.461h-4.396v21.326h2.415
		v-20.215h1.329c0.733,0.027,1.412,0.162,2.062,0.381c0.651,0.217,1.221,0.543,1.709,0.949c0.489,0.434,0.869,0.977,1.167,1.602
		c0.271,0.65,0.407,1.41,0.407,2.252c0,0.568-0.054,1.139-0.189,1.682c-0.136,0.543-0.353,1.031-0.651,1.492
		c-0.325,0.463-0.759,0.867-1.303,1.193c-0.57,0.354-1.274,0.598-2.116,0.734l0.109,0.703c0.733-0.08,1.492-0.299,2.279-0.596
		c0.787-0.299,1.492-0.705,2.144-1.221C66.73,167.659,67.272,167.008,67.679,166.274z"/>
	<polygon fill="#FFFFFF" points="82.115,178.131 74.708,178.131 74.708,169.124 80.162,169.124 80.162,168.01 74.708,168.01 
		74.708,159.002 82.115,159.002 82.115,157.891 72.293,157.891 72.293,179.217 82.115,179.217 	"/>
	<path fill="#FFFFFF" d="M95.764,169.475c-0.434-0.406-0.923-0.758-1.492-1.002c-0.57-0.246-1.167-0.408-1.791-0.516
		c0.542-0.191,1.058-0.436,1.547-0.734c0.489-0.297,0.923-0.678,1.275-1.111c0.353-0.408,0.651-0.896,0.869-1.465
		c0.19-0.543,0.299-1.141,0.299-1.791c0-0.869-0.164-1.629-0.516-2.279s-0.787-1.193-1.357-1.654
		c-0.569-0.436-1.194-0.76-1.926-0.979c-0.733-0.215-1.466-0.324-2.226-0.324c-1.085,0-2.089,0.162-2.984,0.514
		c-0.895,0.354-1.682,0.896-2.36,1.602v0.652c0.786-0.461,1.546-0.787,2.279-1.004c0.732-0.219,1.545-0.326,2.442-0.326
		c0.813,0,1.492,0.107,2.035,0.326c0.542,0.244,0.976,0.543,1.33,0.895c0.325,0.381,0.569,0.814,0.705,1.275
		c0.135,0.463,0.216,0.949,0.216,1.412c0,0.678-0.081,1.301-0.271,1.844c-0.19,0.57-0.461,1.059-0.787,1.465
		c-0.325,0.408-0.705,0.76-1.112,1.004c-0.407,0.271-0.84,0.434-1.303,0.516h-1.085v0.979h0.244c1.818,0,3.093,0.406,3.825,1.248
		c0.733,0.84,1.086,2.061,1.086,3.662c0,0.678-0.082,1.248-0.218,1.736c-0.135,0.516-0.298,0.922-0.46,1.275
		c-0.19,0.406-0.408,0.732-0.651,1.031c-0.408,0.189-0.868,0.352-1.357,0.486c-0.488,0.137-1.112,0.219-1.845,0.219
		c-0.625,0-1.221-0.082-1.737-0.271c-0.516-0.162-1.003-0.381-1.466-0.68c-0.461-0.27-0.867-0.596-1.275-0.949
		c-0.406-0.352-0.813-0.732-1.193-1.111v2.008c0.353,0.406,0.759,0.76,1.275,1.084c0.434,0.271,0.977,0.516,1.656,0.732
		c0.677,0.219,1.49,0.326,2.468,0.326c1.058,0,2.035-0.162,2.93-0.461c0.896-0.297,1.655-0.705,2.308-1.275
		c0.65-0.543,1.166-1.193,1.519-1.98c0.352-0.787,0.542-1.627,0.542-2.578c0-0.867-0.136-1.6-0.38-2.223
		C96.551,170.426,96.198,169.911,95.764,169.475z"/>
	<polygon fill="#FFFFFF" points="118.611,161.499 118.611,179.217 121.053,179.217 121.053,157.891 120.511,157.891 
		102.631,175.635 102.631,157.891 100.189,157.891 100.189,179.217 100.731,179.217 	"/>
	<path fill="#FFFFFF" d="M144.499,184.86v-6.729h-2.578v-20.24h-11.83c-0.055,1.383-0.136,2.768-0.217,4.205
		c-0.082,1.248-0.218,2.604-0.353,4.07c-0.136,1.492-0.326,2.93-0.542,4.34c-0.298,1.928-0.732,3.527-1.248,4.775
		c-0.543,1.248-1.33,2.197-2.361,2.85h-1.601v6.729h2.306v-5.643h16.118v5.643H144.499z M139.48,178.131h-12.347
		c0.788-0.678,1.412-1.629,1.9-2.795c0.462-1.166,0.842-2.768,1.14-4.748c0.136-1.086,0.272-2.197,0.408-3.338
		c0.108-1.139,0.216-2.225,0.298-3.283c0.082-1.031,0.136-1.98,0.19-2.848c0.027-0.867,0.082-1.574,0.108-2.117h8.303V178.131z"/>
	<polygon fill="#FFFFFF" points="147.134,179.217 156.955,179.217 156.955,178.131 149.548,178.131 149.548,169.124 
		155.002,169.124 155.002,168.01 149.548,168.01 149.548,159.002 156.955,159.002 156.955,157.891 147.134,157.891 	"/>
	<polygon fill="#FFFFFF" points="162.763,169.124 175.38,169.124 175.38,179.217 177.795,179.217 177.795,157.891 175.38,157.891 
		175.38,168.01 162.763,168.01 162.763,157.891 160.348,157.891 160.348,179.217 162.763,179.217 	"/>
	<polygon fill="#FFFFFF" points="202.027,184.86 202.027,178.159 199.449,178.159 199.449,157.891 197.007,157.891 197.007,178.159 
		184.553,178.159 184.553,157.891 182.111,157.891 182.111,179.217 199.72,179.217 199.72,184.86 	"/>
	<polygon fill="#FFFFFF" points="207.185,157.891 204.743,157.891 204.743,179.217 205.285,179.217 223.165,161.499 
		223.165,179.217 225.607,179.217 225.607,157.891 225.065,157.891 207.185,175.635 	"/>
	<path fill="#FFFFFF" d="M237.359,170.317h2.793v8.9h2.416v-21.326h-5.236c-0.977,0-1.899,0.135-2.768,0.406
		c-0.896,0.271-1.655,0.678-2.307,1.221c-0.678,0.543-1.194,1.221-1.575,2.035c-0.379,0.814-0.569,1.764-0.569,2.822
		c0,1.383,0.408,2.578,1.221,3.582c0.787,1.004,1.954,1.709,3.473,2.088l-6.484,9.172h2.822l6.187-8.9H237.359z M233.859,167.686
		c-0.433-0.463-0.759-1.031-0.949-1.684c-0.19-0.623-0.298-1.303-0.298-2.035c0-0.787,0.081-1.572,0.216-2.359
		s0.434-1.547,0.842-2.225c0.189-0.082,0.407-0.137,0.677-0.189c0.272-0.055,0.57-0.109,0.869-0.137
		c0.298-0.027,0.597-0.055,0.895-0.082c0.3-0.027,0.598-0.027,0.842-0.027h3.201v10.311h-2.278c-0.95,0-1.736-0.135-2.388-0.434
		C234.809,168.553,234.266,168.174,233.859,167.686z"/>
	<polygon fill="#FFFFFF" points="15.64,206.323 3.024,206.323 3.024,196.202 0.609,196.202 0.609,217.528 3.024,217.528 
		3.024,207.434 15.64,207.434 15.64,217.528 18.056,217.528 18.056,196.202 15.64,196.202 	"/>
	<path fill="#FFFFFF" d="M30.023,196.01l-8.601,21.518h1.302l3.256-8.195h7.001l3.283,8.195h2.631L30.24,196.01H30.023z
		 M26.415,208.221l3.039-7.652l3.066,7.652H26.415z"/>
	<path fill="#FFFFFF" d="M181.396,202.237c-0.515-1.328-1.22-2.469-2.17-3.418s-2.089-1.682-3.418-2.197
		c-1.329-0.516-2.849-0.787-4.531-0.787c-1.303,0-2.604,0.244-3.881,0.732c-1.301,0.488-2.468,1.193-3.5,2.117
		c-1.059,0.949-1.899,2.088-2.523,3.473c-0.651,1.385-0.976,2.957-0.976,4.748c0,1.6,0.243,3.039,0.76,4.369
		c0.515,1.328,1.221,2.469,2.17,3.418c0.95,0.949,2.089,1.709,3.418,2.225s2.848,0.787,4.532,0.787c1.303,0,2.604-0.244,3.907-0.732
		c1.275-0.488,2.441-1.193,3.5-2.143c1.032-0.924,1.873-2.062,2.523-3.447c0.625-1.383,0.95-2.957,0.95-4.748
		C182.156,205.032,181.912,203.567,181.396,202.237z M179.47,209.538c-0.164,0.812-0.354,1.545-0.598,2.17
		c-0.244,0.65-0.542,1.221-0.84,1.709c-0.299,0.516-0.625,0.977-0.95,1.383c-0.624,0.463-1.356,0.869-2.144,1.168
		c-0.814,0.326-1.683,0.488-2.633,0.488c-1.519,0-2.875-0.326-4.042-0.949c-1.166-0.625-2.169-1.438-2.957-2.416
		c-0.814-0.949-1.411-2.008-1.818-3.146c-0.407-1.111-0.624-2.172-0.624-3.174c0-1.059,0.081-1.98,0.216-2.795
		c0.136-0.789,0.354-1.52,0.598-2.172c0.243-0.623,0.515-1.193,0.841-1.709c0.299-0.488,0.624-0.949,0.949-1.355
		c0.625-0.463,1.357-0.869,2.17-1.195c0.788-0.299,1.656-0.459,2.605-0.459c1.52,0,2.875,0.324,4.043,0.949
		c1.165,0.623,2.17,1.438,2.984,2.387c0.787,0.977,1.41,2.035,1.817,3.146c0.406,1.141,0.597,2.197,0.597,3.203
		C179.687,207.829,179.605,208.75,179.47,209.538z"/>
	<path fill="#FFFFFF" d="M60.882,208.018c-0.461-0.434-1.004-0.787-1.601-1.086c-0.625-0.271-1.249-0.488-1.926-0.625
		c0.407-0.27,0.813-0.568,1.194-0.895c0.38-0.326,0.705-0.705,1.003-1.113c0.299-0.406,0.516-0.895,0.706-1.41
		c0.162-0.516,0.244-1.139,0.244-1.818c0-1.492-0.596-2.686-1.791-3.607c-1.194-0.896-2.931-1.357-5.209-1.357h-2.985v21.326h4.178
		c1.004,0,1.981-0.135,2.931-0.406c0.922-0.244,1.736-0.625,2.469-1.141c0.705-0.516,1.274-1.139,1.709-1.871
		c0.407-0.734,0.624-1.574,0.624-2.523c0-0.734-0.135-1.385-0.407-1.953C61.724,208.967,61.344,208.452,60.882,208.018z
		 M52.933,197.137c0.706-0.027,1.384,0.055,2.036,0.299c0.65,0.244,1.221,0.598,1.735,1.057c0.489,0.463,0.895,1.031,1.194,1.711
		c0.299,0.678,0.461,1.41,0.461,2.225c0,0.57-0.163,1.193-0.461,1.871c-0.299,0.68-0.732,1.303-1.249,1.873
		c-0.406-0.053-0.813-0.082-1.193-0.082h-2.524V197.137z M59.742,213.85c-0.135,0.707-0.406,1.412-0.867,2.09
		c-0.354,0.135-0.814,0.244-1.384,0.326c-0.569,0.082-1.113,0.107-1.628,0.107h-2.931v-9.225h2.007c0.651,0,1.276,0.135,1.872,0.436
		c0.597,0.299,1.14,0.678,1.601,1.139c0.462,0.461,0.814,1.004,1.113,1.574c0.271,0.568,0.406,1.166,0.406,1.736
		C59.932,212.547,59.878,213.172,59.742,213.85z"/>
	<path fill="#FFFFFF" d="M134.691,198.819c-0.95-0.949-2.089-1.682-3.418-2.197c-1.33-0.516-2.85-0.787-4.532-0.787
		c-1.303,0-2.604,0.244-3.88,0.732c-1.302,0.488-2.469,1.193-3.5,2.117c-1.059,0.949-1.899,2.088-2.523,3.473
		c-0.65,1.385-0.977,2.957-0.977,4.748c0,1.6,0.244,3.039,0.76,4.369c0.515,1.328,1.221,2.469,2.17,3.418
		c0.95,0.949,2.089,1.709,3.418,2.225s2.849,0.787,4.532,0.787c1.303,0,2.604-0.244,3.907-0.732c1.275-0.488,2.442-1.193,3.5-2.143
		c1.032-0.924,1.873-2.062,2.523-3.447c0.624-1.383,0.95-2.957,0.95-4.748c0-1.602-0.244-3.066-0.76-4.396
		C136.346,200.909,135.64,199.768,134.691,198.819z M134.935,209.538c-0.164,0.812-0.354,1.545-0.598,2.17
		c-0.244,0.65-0.542,1.221-0.84,1.709c-0.299,0.516-0.625,0.977-0.949,1.383c-0.625,0.463-1.357,0.869-2.144,1.168
		c-0.814,0.326-1.683,0.488-2.632,0.488c-1.52,0-2.875-0.326-4.042-0.949c-1.167-0.625-2.17-1.438-2.957-2.416
		c-0.814-0.949-1.411-2.008-1.818-3.146c-0.408-1.111-0.624-2.172-0.624-3.174c0-1.059,0.08-1.98,0.216-2.795
		c0.137-0.789,0.354-1.52,0.598-2.172c0.244-0.623,0.516-1.193,0.841-1.709c0.299-0.488,0.624-0.949,0.95-1.355
		c0.625-0.463,1.357-0.869,2.17-1.195c0.788-0.299,1.656-0.459,2.605-0.459c1.52,0,2.875,0.324,4.043,0.949
		c1.166,0.623,2.17,1.438,2.984,2.387c0.786,0.977,1.41,2.035,1.818,3.146c0.406,1.141,0.596,2.197,0.596,3.203
		C135.151,207.829,135.07,208.75,134.935,209.538z"/>
	<polygon fill="#FFFFFF" points="87.097,217.432 96.919,217.432 96.919,216.348 89.511,216.348 89.511,207.338 94.965,207.338 
		94.965,206.227 89.511,206.227 89.511,197.219 96.919,197.219 96.919,196.106 87.097,196.106 	"/>
	<path fill="#FFFFFF" d="M110.622,208.018c-0.462-0.434-1.003-0.787-1.601-1.086c-0.625-0.271-1.248-0.488-1.925-0.625
		c0.406-0.27,0.813-0.568,1.193-0.895s0.705-0.705,1.003-1.113c0.299-0.406,0.517-0.895,0.706-1.41
		c0.162-0.516,0.244-1.139,0.244-1.818c0-1.492-0.597-2.686-1.791-3.607c-1.194-0.896-2.93-1.357-5.209-1.357h-2.985v21.326h4.178
		c1.004,0,1.981-0.135,2.93-0.406c0.923-0.244,1.737-0.625,2.47-1.141c0.705-0.516,1.275-1.139,1.709-1.871
		c0.407-0.734,0.624-1.574,0.624-2.523c0-0.734-0.135-1.385-0.407-1.953C111.463,208.967,111.083,208.452,110.622,208.018z
		 M102.673,197.137c0.705-0.027,1.383,0.055,2.035,0.299c0.65,0.244,1.221,0.598,1.735,1.057c0.489,0.463,0.896,1.031,1.194,1.711
		c0.299,0.678,0.461,1.41,0.461,2.225c0,0.57-0.163,1.193-0.461,1.871c-0.299,0.68-0.731,1.303-1.248,1.873
		c-0.407-0.053-0.814-0.082-1.193-0.082h-2.523V197.137z M109.482,213.85c-0.136,0.707-0.407,1.412-0.868,2.09
		c-0.354,0.135-0.814,0.244-1.384,0.326s-1.113,0.107-1.628,0.107h-2.93v-9.225h2.007c0.651,0,1.275,0.135,1.872,0.436
		c0.597,0.299,1.14,0.678,1.601,1.139c0.462,0.461,0.814,1.004,1.112,1.574c0.271,0.568,0.407,1.166,0.407,1.736
		C109.672,212.547,109.619,213.172,109.482,213.85z"/>
	<path fill="#FFFFFF" d="M77.299,195.834c-1.437,0-2.821,0.244-4.151,0.732c-1.329,0.518-2.497,1.248-3.5,2.197
		c-1.031,0.949-1.845,2.117-2.441,3.502c-0.624,1.383-0.922,2.957-0.922,4.721c0,1.682,0.299,3.174,0.868,4.504
		c0.57,1.33,1.385,2.469,2.388,3.391c1.004,0.949,2.17,1.656,3.5,2.145c1.329,0.516,2.74,0.76,4.259,0.76
		c1.058,0,2.171-0.164,3.31-0.463c1.113-0.297,2.199-0.867,3.229-1.709v-0.65c-0.733,0.436-1.465,0.76-2.225,0.977
		c-0.787,0.217-1.627,0.326-2.577,0.326c-1.384,0-2.686-0.217-3.907-0.652c-1.248-0.434-2.333-1.084-3.283-1.926
		s-1.682-1.873-2.252-3.121c-0.569-1.248-0.841-2.684-0.841-4.312c0-1.494,0.218-2.795,0.625-3.961
		c0.406-1.168,1.003-2.145,1.764-2.932c0.76-0.787,1.682-1.383,2.768-1.791c1.084-0.406,2.306-0.596,3.635-0.596
		s2.496,0.189,3.5,0.596c1.004,0.408,1.926,1.059,2.794,1.928v-2.008c-0.84-0.57-1.791-1.006-2.849-1.275
		C79.931,195.971,78.711,195.834,77.299,195.834z"/>
	<path fill="#FFFFFF" d="M143.73,201.262c-0.027,0.678-0.027,1.383-0.055,2.088c-0.027,0.732-0.081,1.41-0.108,2.062
		c-0.027,0.65-0.081,1.248-0.108,1.791c-0.028,0.568-0.082,1.031-0.109,1.383c-0.109,1.086-0.245,2.035-0.435,2.877
		c-0.189,0.842-0.407,1.547-0.705,2.115c-0.299,0.57-0.679,1.006-1.14,1.303c-0.462,0.299-1.059,0.461-1.737,0.461
		c-0.216,0-0.406,0-0.57-0.025c-0.189-0.027-0.325-0.055-0.46-0.082c-0.136-0.027-0.272-0.082-0.407-0.137v2.334
		c0.108,0.055,0.244,0.109,0.407,0.137c0.135,0.027,0.271,0.053,0.46,0.08c0.19,0.027,0.38,0.027,0.599,0.027
		c0.949,0,1.709-0.217,2.332-0.65c0.625-0.436,1.112-1.059,1.492-1.846c0.38-0.787,0.679-1.709,0.869-2.822
		c0.19-1.111,0.353-2.332,0.489-3.689c0.026-0.406,0.081-0.922,0.108-1.547c0.027-0.598,0.082-1.248,0.108-1.953
		c0.027-0.705,0.054-1.438,0.082-2.197c0.027-0.76,0.027-1.494,0.054-2.199c0.028-0.705,0.028-1.355,0.055-1.979
		c0-0.625,0-1.141,0.027-1.574h9.116v20.213h2.442v-21.326h-12.671C143.838,197.924,143.784,199.633,143.73,201.262z"/>
	<polygon fill="#FFFFFF" points="210.511,196.106 208.802,196.106 197.867,206.932 197.867,196.106 195.452,196.106 
		195.452,206.932 184.517,196.106 182.808,196.106 193.01,206.172 181.451,217.432 184.734,217.432 195.452,206.987 
		195.452,217.432 197.867,217.432 197.867,206.987 208.584,217.432 211.867,217.432 200.39,206.09 	"/>
	<path fill="#FFFFFF" d="M222.968,195.834c-1.438,0-2.821,0.244-4.151,0.732c-1.329,0.518-2.497,1.248-3.5,2.197
		c-1.03,0.949-1.845,2.117-2.441,3.502c-0.623,1.383-0.923,2.957-0.923,4.721c0,1.682,0.3,3.174,0.869,4.504
		c0.57,1.33,1.383,2.469,2.388,3.391c1.003,0.949,2.171,1.656,3.5,2.145c1.329,0.516,2.739,0.76,4.259,0.76
		c1.059,0,2.171-0.164,3.311-0.463c1.113-0.297,2.198-0.867,3.229-1.709v-0.65c-0.733,0.436-1.465,0.76-2.225,0.977
		c-0.788,0.217-1.627,0.326-2.577,0.326c-1.385,0-2.688-0.217-3.908-0.652c-1.248-0.434-2.333-1.084-3.283-1.926
		c-0.949-0.842-1.682-1.873-2.252-3.121c-0.57-1.248-0.841-2.684-0.841-4.312c0-1.494,0.217-2.795,0.625-3.961
		c0.406-1.168,1.004-2.145,1.763-2.932c0.76-0.787,1.682-1.383,2.769-1.791c1.085-0.406,2.305-0.596,3.634-0.596
		c1.33,0,2.497,0.189,3.501,0.596c1.003,0.408,1.926,1.059,2.794,1.928v-2.008c-0.841-0.57-1.792-1.006-2.849-1.275
		C225.6,195.971,224.38,195.834,222.968,195.834z"/>
	<polygon fill="#FFFFFF" points="248.097,196.106 246.387,196.106 235.452,206.579 235.452,196.106 233.036,196.106 
		233.036,217.432 235.452,217.432 235.452,206.633 246.168,217.432 249.451,217.432 237.975,205.739 	"/>
	<path fill="#FFFFFF" d="M268.501,198.819c-0.949-0.949-2.088-1.682-3.418-2.197c-1.329-0.516-2.85-0.787-4.532-0.787
		c-1.303,0-2.604,0.244-3.881,0.732c-1.301,0.488-2.468,1.193-3.499,2.117c-1.059,0.949-1.899,2.088-2.523,3.473
		c-0.65,1.385-0.976,2.957-0.976,4.748c0,1.6,0.244,3.039,0.76,4.369c0.515,1.328,1.221,2.469,2.17,3.418s2.088,1.709,3.418,2.225
		s2.849,0.787,4.531,0.787c1.303,0,2.604-0.244,3.908-0.732c1.274-0.488,2.442-1.193,3.5-2.143c1.029-0.924,1.871-2.062,2.521-3.447
		c0.625-1.383,0.951-2.957,0.951-4.748c0-1.602-0.244-3.066-0.76-4.396C270.158,200.909,269.453,199.768,268.501,198.819z
		 M268.748,209.538c-0.164,0.812-0.354,1.545-0.6,2.17c-0.244,0.65-0.541,1.221-0.84,1.709c-0.299,0.516-0.625,0.977-0.949,1.383
		c-0.625,0.463-1.357,0.869-2.143,1.168c-0.814,0.326-1.684,0.488-2.633,0.488c-1.52,0-2.875-0.326-4.043-0.949
		c-1.166-0.625-2.17-1.438-2.957-2.416c-0.814-0.949-1.411-2.008-1.816-3.146c-0.408-1.111-0.625-2.172-0.625-3.174
		c0-1.059,0.08-1.98,0.217-2.795c0.135-0.789,0.353-1.52,0.597-2.172c0.243-0.623,0.516-1.193,0.841-1.709
		c0.299-0.488,0.624-0.949,0.949-1.355c0.625-0.463,1.357-0.869,2.17-1.195c0.789-0.299,1.656-0.459,2.605-0.459
		c1.521,0,2.877,0.324,4.044,0.949c1.166,0.623,2.169,1.438,2.984,2.387c0.787,0.977,1.412,2.035,1.818,3.146
		c0.406,1.141,0.596,2.197,0.596,3.203C268.962,207.829,268.882,208.75,268.748,209.538z"/>
	<polygon fill="#FFFFFF" points="297.294,196.106 287.361,213.905 277.974,196.106 275.667,196.106 275.667,217.432 
		276.835,217.432 276.835,198.956 286.55,217.432 286.765,217.432 296.261,200.176 296.261,217.432 298.677,217.432 
		298.677,196.106 	"/>
	<path fill="#FFFFFF" d="M184.657,68.492c0-19.334-15.729-35.057-35.058-35.057c-19.331,0-35.06,15.723-35.06,35.057
		c0,19.332,15.729,35.059,35.06,35.059C168.928,103.551,184.657,87.824,184.657,68.492z M142.647,75.238h-3.83V46.145h3.83V75.238z
		 M150.544,91.156h-3.83V62.061c4.659-0.998,5.251-4.885,5.251-8.143c0-4.221-1.895-6.959-6.515-7.588
		c5.567,0,10.858,2.146,10.858,7.736c0,4.848-5.094,7.994-9.595,7.994h3.83V91.156z M162.469,69.205
		c0,3.998-3.238,5.924-6.002,6.775c1.659-1.408,2.014-4.184,2.014-6.404c0-3.738-2.211-6.959-6.159-7.477
		C156.27,62.1,162.469,63.875,162.469,69.205z M154.453,91.045c3.831-1.109,6.239-3.924,6.239-7.291
		c0-3.258-0.987-5.738-4.146-7.627c4.58,0.557,8.45,3.406,8.45,7.33C164.996,87.973,160.1,91.045,154.453,91.045z"/>
	<polygon fill="#FFFFFF" points="154.889,29.671 161.899,15.506 159.278,10.583 153.621,29.519 	"/>
	<polygon fill="#FFFFFF" points="151.204,29.345 156.452,6.372 152.766,1.667 146.521,1.667 142.834,6.372 148.083,29.345 	"/>
	<polygon fill="#FFFFFF" points="145.666,29.519 140.008,10.583 137.388,15.506 144.396,29.671 	"/>
	<polygon fill="#FFFFFF" points="154.889,107.314 153.621,107.467 159.278,126.401 161.899,121.479 	"/>
	<polygon fill="#FFFFFF" points="152.766,135.317 156.452,130.614 151.204,107.641 148.083,107.641 142.834,130.614 
		146.521,135.317 	"/>
	<polygon fill="#FFFFFF" points="140.008,126.401 145.666,107.467 144.396,107.314 137.388,121.479 	"/>
	<polygon fill="#FFFFFF" points="129.033,13.524 133.601,32.751 134.775,32.249 133.764,16.477 	"/>
	<polygon fill="#FFFFFF" points="137.439,22.947 137.272,31.324 141.772,30.118 	"/>
	<polygon fill="#FFFFFF" points="136.484,2.995 128.291,5.19 133.847,9.542 	"/>
	<polygon fill="#FFFFFF" points="131.421,33.809 124.479,11.29 118.935,9.06 113.527,12.182 112.686,18.099 128.718,35.37 	"/>
	<polygon fill="#FFFFFF" points="125.689,37.495 126.712,36.73 112.345,23.16 112.537,28.733 	"/>
	<polygon fill="#FFFFFF" points="172.575,100.256 186.942,113.827 186.75,108.252 173.597,99.49 	"/>
	<polygon fill="#FFFFFF" points="180.352,127.926 185.759,124.803 186.601,118.887 170.569,101.615 167.865,103.176 
		174.807,125.696 	"/>
	<polygon fill="#FFFFFF" points="170.253,123.461 165.686,104.232 164.511,104.736 165.522,120.508 	"/>
	<polygon fill="#FFFFFF" points="162.015,105.66 157.514,106.867 161.847,114.038 	"/>
	<polygon fill="#FFFFFF" points="165.439,127.444 162.802,133.991 170.996,131.795 	"/>
	<polygon fill="#FFFFFF" points="117.88,45.561 118.646,44.539 109.884,31.385 104.31,31.194 	"/>
	<polygon fill="#FFFFFF" points="120.345,42.49 123.64,39.195 116.301,35.151 	"/>
	<polygon fill="#FFFFFF" points="105.498,18.349 99.5,24.347 106.488,25.337 	"/>
	<polygon fill="#FFFFFF" points="114.959,50.27 116.521,47.566 99.25,31.535 93.332,32.376 90.21,37.785 92.44,43.33 	"/>
	<polygon fill="#FFFFFF" points="94.675,47.883 97.628,52.613 113.399,53.625 113.902,52.451 	"/>
	<polygon fill="#FFFFFF" points="185.384,84.535 204.611,89.104 201.658,84.371 185.887,83.359 	"/>
	<polygon fill="#FFFFFF" points="209.076,99.201 206.846,93.656 184.327,86.715 182.766,89.418 200.037,105.449 205.954,104.609 	
		"/>
	<polygon fill="#FFFFFF" points="180.64,92.447 189.402,105.6 194.976,105.791 181.406,91.424 	"/>
	<polygon fill="#FFFFFF" points="175.646,97.791 182.985,101.834 178.941,94.496 	"/>
	<polygon fill="#FFFFFF" points="199.787,112.637 192.799,111.649 193.788,118.635 	"/>
	<polygon fill="#FFFFFF" points="91.733,58.857 110.669,64.516 110.821,63.246 96.657,56.236 	"/>
	<polygon fill="#FFFFFF" points="104.097,56.289 111.268,60.621 112.475,56.121 	"/>
	<polygon fill="#FFFFFF" points="86.341,47.141 84.145,55.334 90.692,52.697 	"/>
	<polygon fill="#FFFFFF" points="110.496,70.053 110.496,66.932 87.523,61.684 82.818,65.371 82.818,71.615 87.523,75.303 	"/>
	<polygon fill="#FFFFFF" points="96.657,80.748 110.821,73.738 110.669,72.471 91.734,78.127 	"/>
	<polygon fill="#FFFFFF" points="202.629,56.236 188.465,63.246 188.616,64.516 207.552,58.857 	"/>
	<polygon fill="#FFFFFF" points="188.79,66.932 188.791,70.053 211.763,75.303 216.467,71.615 216.468,65.371 211.763,61.684 	"/>
	<polygon fill="#FFFFFF" points="188.616,72.471 188.465,73.738 202.629,80.748 207.552,78.127 	"/>
	<polygon fill="#FFFFFF" points="195.189,80.697 188.017,76.363 186.812,80.863 	"/>
	<polygon fill="#FFFFFF" points="215.141,81.652 208.595,84.289 212.946,89.846 	"/>
	<polygon fill="#FFFFFF" points="113.399,83.359 97.628,84.371 94.675,89.104 113.902,84.535 	"/>
	<polygon fill="#FFFFFF" points="112.474,80.863 111.269,76.363 104.097,80.697 	"/>
	<polygon fill="#FFFFFF" points="90.692,84.289 84.145,81.652 86.34,89.846 	"/>
	<polygon fill="#FFFFFF" points="114.959,86.715 92.44,93.656 90.21,99.201 93.332,104.609 99.25,105.449 116.521,89.418 	"/>
	<polygon fill="#FFFFFF" points="104.31,105.791 109.883,105.6 118.646,92.447 117.88,91.424 	"/>
	<polygon fill="#FFFFFF" points="181.406,45.561 194.976,31.194 189.402,31.386 180.64,44.539 	"/>
	<polygon fill="#FFFFFF" points="184.327,50.27 206.846,43.33 209.076,37.785 205.954,32.376 200.037,31.535 182.766,47.566 	"/>
	<polygon fill="#FFFFFF" points="185.887,53.625 201.658,52.613 204.611,47.883 185.384,52.451 	"/>
	<polygon fill="#FFFFFF" points="195.189,56.289 186.812,56.121 188.017,60.621 	"/>
	<polygon fill="#FFFFFF" points="215.141,55.334 212.945,47.141 208.595,52.697 	"/>
	<polygon fill="#FFFFFF" points="125.688,99.49 112.536,108.252 112.344,113.827 126.712,100.256 	"/>
	<polygon fill="#FFFFFF" points="120.345,94.496 116.301,101.834 123.64,97.791 	"/>
	<polygon fill="#FFFFFF" points="106.487,111.649 99.5,112.637 105.498,118.635 	"/>
	<polygon fill="#FFFFFF" points="118.935,127.926 124.479,125.696 131.421,103.176 128.717,101.615 112.686,118.887 
		113.527,124.803 	"/>
	<polygon fill="#FFFFFF" points="129.033,123.461 133.763,120.508 134.775,104.736 133.601,104.232 	"/>
	<polygon fill="#FFFFFF" points="137.439,114.04 141.772,106.867 137.271,105.66 	"/>
	<polygon fill="#FFFFFF" points="136.484,133.991 133.847,127.444 128.29,131.795 	"/>
	<polygon fill="#FFFFFF" points="165.522,16.477 164.511,32.249 165.685,32.751 170.253,13.524 	"/>
	<polygon fill="#FFFFFF" points="157.514,30.118 162.015,31.324 161.847,22.947 	"/>
	<polygon fill="#FFFFFF" points="170.996,5.19 162.802,2.995 165.439,9.542 	"/>
	<polygon fill="#FFFFFF" points="170.568,35.37 186.601,18.099 185.759,12.182 180.352,9.059 174.806,11.29 167.865,33.809 	"/>
	<polygon fill="#FFFFFF" points="173.597,37.495 186.75,28.733 186.941,23.16 172.574,36.73 	"/>
	<polygon fill="#FFFFFF" points="175.646,39.195 178.941,42.49 182.984,35.151 	"/>
	<polygon fill="#FFFFFF" points="193.788,18.349 192.798,25.336 199.786,24.347 	"/>
</g>
</svg>
